<svg xmlns="http://www.w3.org/2000/svg" viewBox="0 0 500 500"><g id="freepik--background-complete--inject-13"><rect y="382.4" width="500" height="0.25" style="fill:#ebebeb"></rect><rect x="416.78" y="398.49" width="33.12" height="0.25" style="fill:#ebebeb"></rect><rect x="322.53" y="401.21" width="8.69" height="0.25" style="fill:#ebebeb"></rect><rect x="396.59" y="389.21" width="19.19" height="0.25" style="fill:#ebebeb"></rect><rect x="52.46" y="390.89" width="43.19" height="0.25" style="fill:#ebebeb"></rect><rect x="104.56" y="390.89" width="6.33" height="0.25" style="fill:#ebebeb"></rect><rect x="131.47" y="395.11" width="93.68" height="0.25" style="fill:#ebebeb"></rect><path d="M237,337.8H43.91a5.71,5.71,0,0,1-5.7-5.71V60.66A5.71,5.71,0,0,1,43.91,55H237a5.71,5.71,0,0,1,5.71,5.71V332.09A5.71,5.71,0,0,1,237,337.8ZM43.91,55.2a5.46,5.46,0,0,0-5.45,5.46V332.09a5.46,5.46,0,0,0,5.45,5.46H237a5.47,5.47,0,0,0,5.46-5.46V60.66A5.47,5.47,0,0,0,237,55.2Z" style="fill:#ebebeb"></path><path d="M453.31,337.8H260.21a5.72,5.72,0,0,1-5.71-5.71V60.66A5.72,5.72,0,0,1,260.21,55h193.1A5.71,5.71,0,0,1,459,60.66V332.09A5.71,5.71,0,0,1,453.31,337.8ZM260.21,55.2a5.47,5.47,0,0,0-5.46,5.46V332.09a5.47,5.47,0,0,0,5.46,5.46h193.1a5.47,5.47,0,0,0,5.46-5.46V60.66a5.47,5.47,0,0,0-5.46-5.46Z" style="fill:#ebebeb"></path><circle cx="414.6" cy="267.42" r="18.56" transform="translate(59.08 609.49) rotate(-76.72)" style="fill:#ebebeb"></circle><circle cx="414.6" cy="267.42" r="15.76" style="fill:#e0e0e0;isolation:isolate"></circle><path d="M426,256.48a15.77,15.77,0,0,0-22.29,22.29A15.76,15.76,0,1,1,426,256.48Z" style="fill:#e0e0e0;isolation:isolate"></path><path d="M414.6,248.86a18.56,18.56,0,1,0,18.55,18.56A18.56,18.56,0,0,0,414.6,248.86Zm0,36.11a17.55,17.55,0,1,1,17.54-17.55A17.54,17.54,0,0,1,414.6,285Z" style="fill:#e0e0e0;isolation:isolate"></path><path d="M429.77,256.74a20.51,20.51,0,0,1,.48,2.75,17.54,17.54,0,0,1-24,23.37,22.53,22.53,0,0,1-2.72-.53,18.56,18.56,0,0,0,26.23-25.59Z" style="fill:#e0e0e0;isolation:isolate"></path><path d="M423.69,266.74l-.48,1.36h2.93v1.39h-3.41l-1.69,4.9h-2.77l-1.73-4.9h-3.87l-1.75,4.9h-2.77l-1.69-4.9h-3.41V268.1H406l-.46-1.36h-2.47v-1.39h2l-1.69-4.9H406l1.67,4.9h4l1.73-4.9h2.47l1.69,4.9h4l1.71-4.9h2.55l-1.69,4.9h2v1.39Zm-15,1.36h2.07l.48-1.36h-3Zm1.57,1.39h-1.09l.54,1.58ZM416,268.1l-.48-1.36h-1.91l-.48,1.36Zm-1.89-2.75h.91l-.45-1.3Zm7,1.39h-3.05l.48,1.36h2.09Zm-1,2.75H419l.56,1.62Z" style="fill:#ebebeb"></path><circle cx="109.56" cy="317.87" r="18.56" style="fill:#ebebeb"></circle><circle cx="109.56" cy="317.87" r="15.76" style="fill:#e0e0e0;isolation:isolate"></circle><path d="M120.91,306.93a15.76,15.76,0,0,0-22.28,22.29,15.76,15.76,0,1,1,22.28-22.29Z" style="fill:#e0e0e0;isolation:isolate"></path><path d="M109.56,299.31a18.56,18.56,0,1,0,18.56,18.56A18.56,18.56,0,0,0,109.56,299.31Zm0,36.1a17.54,17.54,0,1,1,17.54-17.54A17.54,17.54,0,0,1,109.56,335.41Z" style="fill:#e0e0e0;isolation:isolate"></path><path d="M124.74,307.19a22.39,22.39,0,0,1,.47,2.74,17.55,17.55,0,0,1-24,23.38,20.14,20.14,0,0,1-2.72-.54,18.56,18.56,0,0,0,26.23-25.58Z" style="fill:#e0e0e0;isolation:isolate"></path><path d="M116.18,315.76v1.37H102.94v-1.37h8.7a1.22,1.22,0,0,0,.76-1c0-1.06-.88-1.89-3-1.89a9.47,9.47,0,0,0-4,.89l-.6-2a10.34,10.34,0,0,1,4.48-1c3.57,0,5.66,1.71,5.66,4.18a3.06,3.06,0,0,1-.12.9Zm-13.24,2.74h13.24v1.38h-8.52c-.58.3-1,.66-1,1.19,0,1,.9,1.82,3.07,1.82a8.71,8.71,0,0,0,4.7-1.32l.72,2a10.76,10.76,0,0,1-5.36,1.48c-3.63,0-5.7-1.67-5.7-4.16a2.65,2.65,0,0,1,.2-1h-1.39Z" style="fill:#ebebeb"></path><circle cx="92.02" cy="166.09" r="18.56" transform="translate(-90.77 217.49) rotate(-76.72)" style="fill:#ebebeb"></circle><circle cx="92.02" cy="166.09" r="15.76" style="fill:#e0e0e0;isolation:isolate"></circle><path d="M103.37,155.15a15.77,15.77,0,0,0-22.29,22.29,15.76,15.76,0,1,1,22.29-22.29Z" style="fill:#e0e0e0;isolation:isolate"></path><path d="M92,147.53a18.56,18.56,0,1,0,18.56,18.56A18.56,18.56,0,0,0,92,147.53Zm0,36.1a17.54,17.54,0,1,1,17.54-17.54A17.54,17.54,0,0,1,92,183.63Z" style="fill:#e0e0e0;isolation:isolate"></path><path d="M107.19,155.4a21.08,21.08,0,0,1,.48,2.75,17.55,17.55,0,0,1-24,23.38A20.14,20.14,0,0,1,81,181a18.56,18.56,0,0,0,26.22-25.59Z" style="fill:#e0e0e0;isolation:isolate"></path><path d="M90.52,161.29v4.24h6.73v2.19H90.52v1.87H94.9V171H90.52v2.07H87.93V171h-2v-1.4h2V159.11H98.1v2.18Z" style="fill:#ebebeb"></path><circle cx="285.72" cy="167.44" r="18.56" style="fill:#ebebeb"></circle><circle cx="285.72" cy="167.44" r="15.76" style="fill:#e0e0e0;isolation:isolate"></circle><path d="M297.07,156.5a15.77,15.77,0,0,0-22.29,22.29,15.76,15.76,0,1,1,22.29-22.29Z" style="fill:#e0e0e0;isolation:isolate"></path><path d="M285.72,148.89a18.56,18.56,0,1,0,18.55,18.55A18.55,18.55,0,0,0,285.72,148.89Zm0,36.1a17.55,17.55,0,1,1,17.54-17.55A17.54,17.54,0,0,1,285.72,185Z" style="fill:#e0e0e0;isolation:isolate"></path><path d="M300.89,156.76a20.51,20.51,0,0,1,.48,2.75,17.55,17.55,0,0,1-24,23.38,20.77,20.77,0,0,1-2.72-.54,18.56,18.56,0,0,0,26.23-25.59Z" style="fill:#e0e0e0;isolation:isolate"></path><path d="M284.07,174.42h-2.85v-5.06l-2.09,1.11V169l2.09-1.1v-1.37l-2.09,1.09v-1.45l2.09-1.12v-4.58h2.55v3.25l5.08-2.69v1.47l-5.08,2.67v1.38l5.08-2.67v1.45L283.77,168v4.22h.86c3.43,0,5.1-1.81,5.1-4.9h2.57C292.32,171.75,289.53,174.42,284.07,174.42Z" style="fill:#ebebeb"></path><circle cx="197.29" cy="90.54" r="18.56" style="fill:#ebebeb"></circle><circle cx="197.29" cy="90.54" r="15.76" style="fill:#e0e0e0;isolation:isolate"></circle><path d="M208.64,79.6a15.76,15.76,0,0,0-22.28,22.29A15.76,15.76,0,1,1,208.64,79.6Z" style="fill:#e0e0e0;isolation:isolate"></path><path d="M197.29,72a18.56,18.56,0,1,0,18.56,18.55A18.55,18.55,0,0,0,197.29,72Zm0,36.1a17.55,17.55,0,1,1,17.54-17.55A17.54,17.54,0,0,1,197.29,108.09Z" style="fill:#e0e0e0;isolation:isolate"></path><path d="M212.47,79.86a20.5,20.5,0,0,1,.47,2.75A17.54,17.54,0,0,1,189,106a18.69,18.69,0,0,1-2.72-.53,18.56,18.56,0,0,0,26.23-25.59Z" style="fill:#e0e0e0;isolation:isolate"></path><path d="M203.64,85h-3.13a3.71,3.71,0,0,1,1,1.37h2.17v1.39h-1.88a2.68,2.68,0,0,1,0,.4,4.31,4.31,0,0,1-3.08,4.29l3.34,5.1h-2.79l-3-4.67h-4.09V90.66h3.59c2.47,0,3.46-1.13,3.46-2.65v-.28H191V86.34h7.81A3.47,3.47,0,0,0,195.53,85H191v-1.4h12.69Z" style="fill:#ebebeb"></path><circle cx="368.85" cy="123.47" r="18.56" style="fill:#ebebeb"></circle><circle cx="368.85" cy="123.47" r="15.76" style="fill:#e0e0e0;isolation:isolate"></circle><path d="M380.2,112.53a15.76,15.76,0,0,0-22.28,22.29,15.76,15.76,0,1,1,22.28-22.29Z" style="fill:#e0e0e0;isolation:isolate"></path><path d="M368.85,104.92a18.56,18.56,0,1,0,18.56,18.55A18.54,18.54,0,0,0,368.85,104.92Zm0,36.1a17.55,17.55,0,1,1,17.55-17.55A17.55,17.55,0,0,1,368.85,141Z" style="fill:#e0e0e0;isolation:isolate"></path><path d="M384,112.79a20.5,20.5,0,0,1,.47,2.75,17.54,17.54,0,0,1-24,23.37,19,19,0,0,1-2.72-.53A18.56,18.56,0,0,0,384,112.79Z" style="fill:#e0e0e0;isolation:isolate"></path><path d="M370.33,124.29l5.22,6.15h-3l-5.24-6.15h-.58v6.15h-2.55v-6.15h-2v-1.63h2V116.5h2.55v6.16h.58l5.24-6.16h3l-5.22,6.16H374v1.63Z" style="fill:#ebebeb"></path><circle cx="206.43" cy="238.14" r="18.56" style="fill:#ebebeb"></circle><circle cx="206.43" cy="238.14" r="15.76" style="fill:#e0e0e0;isolation:isolate"></circle><path d="M217.78,227.2a15.76,15.76,0,0,0-22.28,22.29,15.76,15.76,0,1,1,22.28-22.29Z" style="fill:#e0e0e0;isolation:isolate"></path><path d="M206.43,219.59A18.56,18.56,0,1,0,225,238.14,18.55,18.55,0,0,0,206.43,219.59Zm0,36.1A17.55,17.55,0,1,1,224,238.14,17.54,17.54,0,0,1,206.43,255.69Z" style="fill:#e0e0e0;isolation:isolate"></path><path d="M221.61,227.46a22.22,22.22,0,0,1,.47,2.75,17.54,17.54,0,0,1-24,23.37,18.69,18.69,0,0,1-2.72-.53,18.56,18.56,0,0,0,26.23-25.59Z" style="fill:#e0e0e0;isolation:isolate"></path><path d="M212.62,237.47v1.35h2.09v1.39h-2.09v4.9h-2.14l-7.66-9.42v9.42h-2.57v-4.9h-2.1v-1.39h2.1v-1.35h-2.1v-1.4h2.1v-4.9h2.13l7.67,9.44v-9.44h2.57v4.9h2.09v1.4Z" style="fill:#ebebeb"></path><circle cx="285.78" cy="362.83" r="18.56" style="fill:#ebebeb"></circle><circle cx="285.78" cy="362.83" r="15.76" style="fill:#e0e0e0;isolation:isolate"></circle><path d="M297.13,351.89a15.77,15.77,0,0,0-22.29,22.29,15.76,15.76,0,1,1,22.29-22.29Z" style="fill:#e0e0e0;isolation:isolate"></path><path d="M285.78,344.27a18.56,18.56,0,1,0,18.55,18.56A18.56,18.56,0,0,0,285.78,344.27Zm0,36.11a17.55,17.55,0,1,1,17.54-17.55A17.54,17.54,0,0,1,285.78,380.38Z" style="fill:#e0e0e0;isolation:isolate"></path><path d="M301,352.15a20.51,20.51,0,0,1,.48,2.75,17.54,17.54,0,0,1-24,23.37,22.53,22.53,0,0,1-2.72-.53A18.56,18.56,0,0,0,301,352.15Z" style="fill:#e0e0e0;isolation:isolate"></path><path d="M290.6,366.08l1.67,1.59a6.91,6.91,0,0,1-4.92,2.31v2.21h-1.63v-2.25a7.14,7.14,0,0,1,0-14.22v-2.25h1.63v2.21a7,7,0,0,1,4.92,2.31l-1.67,1.57a4.86,4.86,0,0,0-3.25-1.61v9.76A4.8,4.8,0,0,0,290.6,366.08Zm-4.88,1.53v-9.56a4.9,4.9,0,0,0,0,9.56Z" style="fill:#ebebeb"></path></g><g id="freepik--Shadow--inject-13"><ellipse id="freepik--path--inject-13" cx="250" cy="416.24" rx="193.89" ry="11.32" style="fill:#f5f5f5"></ellipse></g><g id="freepik--Plant--inject-13"><path d="M90,370.55s-7.76-9.23-12.72-4.93-2.45,13.43,3.27,13.73A14.38,14.38,0,0,0,90,376.46Z" style="fill:#407BFF"></path><path d="M90,370.55s-7.76-9.23-12.72-4.93-2.45,13.43,3.27,13.73A14.38,14.38,0,0,0,90,376.46Z" style="fill:#fff;opacity:0.2;isolation:isolate"></path><path d="M121.65,347.14s6.51-6.82,10.54-5.66,3.62,17.45-8.89,10.85Z" style="fill:#407BFF"></path><path d="M121.65,347.14s6.51-6.82,10.54-5.66,3.62,17.45-8.89,10.85Z" style="fill:#fff;opacity:0.30000000000000004;isolation:isolate"></path><path d="M98.39,398s-21.4-29.28-4-35.21,20.47,23.55,15.51,31.76S98.39,398,98.39,398Z" style="fill:#407BFF"></path><path d="M108.31,338.1s13.28-30.82-6.38-31.75-21.81,30.56.82,35.13Z" style="fill:#407BFF"></path><path d="M98.39,398s-21.4-29.28-4-35.21,20.47,23.55,15.51,31.76S98.39,398,98.39,398Z" style="fill:#fff;opacity:0.30000000000000004;isolation:isolate"></path><path d="M108.31,338.1s13.28-30.82-6.38-31.75-21.81,30.56.82,35.13Z" style="fill:#fff;opacity:0.30000000000000004;isolation:isolate"></path><path d="M103.6,363.34s-6.45-27.22,6-29.39,24.65,22.42-1,34.78C108.54,368.73,104.14,366,103.6,363.34Z" style="fill:#407BFF"></path><path d="M103.6,363.34s-6.45-27.22,6-29.39,24.65,22.42-1,34.78C108.54,368.73,104.14,366,103.6,363.34Z" style="fill:#fff;opacity:0.2;isolation:isolate"></path><polygon points="82.99 393.88 118.92 393.88 115.92 416.87 85.99 416.87 82.99 393.88" style="fill:#263238"></polygon><path d="M101.67,335.9a25.52,25.52,0,0,1-5-4.88,24.73,24.73,0,0,1-3.52-6.08A18.28,18.28,0,0,1,91.9,318a16.39,16.39,0,0,1,1.61-6.78c-.13.57-.25,1.13-.39,1.69l-.21.83c0,.28,0,.57-.08.85-.06.57-.15,1.13-.2,1.7l0,1.7a21.26,21.26,0,0,0,1.44,6.58,31.62,31.62,0,0,0,3.21,6,29,29,0,0,0,2.06,2.75C100.09,334.22,100.87,335.06,101.67,335.9Z" style="fill:#407BFF"></path><path d="M97,309.45a12.52,12.52,0,0,1,3.22,1.1,14.71,14.71,0,0,1,2.84,1.94,15.14,15.14,0,0,1,4,5.59,20,20,0,0,1,1.38,6.72c0,1.14-.07,2.28-.12,3.41s-.35,2.24-.58,3.34c0-1.14.07-2.25.1-3.37s-.06-2.23-.17-3.33a27.06,27.06,0,0,0-.56-3.26c-.14-.53-.23-1.07-.4-1.59l-.57-1.54A16.21,16.21,0,0,0,97,309.45Z" style="fill:#407BFF"></path><path d="M112,335.9a11.7,11.7,0,0,1,6.52,6.26,14.59,14.59,0,0,1,1.22,4.5,6.57,6.57,0,0,1,.06,1.18,9.46,9.46,0,0,1,0,1.19,13,13,0,0,1-.47,2.31,19.57,19.57,0,0,1-1.88,4.26,29.48,29.48,0,0,1-2.7,3.75,37.61,37.61,0,0,1-6.65,6.27c1.1-1.06,2.17-2.13,3.16-3.27a43.33,43.33,0,0,0,2.89-3.48,24.83,24.83,0,0,0,4.22-7.81,12.08,12.08,0,0,0,.46-2.13,9.93,9.93,0,0,0,0-1.09,6.67,6.67,0,0,0,0-1.09,15,15,0,0,0-1-4.29,12.46,12.46,0,0,0-2.3-3.78A11.61,11.61,0,0,0,112,335.9Z" style="fill:#407BFF"></path><path d="M108.31,338.1a24.45,24.45,0,0,1,1.38,6.23,15.36,15.36,0,0,1,0,3.25,7.76,7.76,0,0,1-1,3.19,12.07,12.07,0,0,0-1.81,5.76,27.4,27.4,0,0,0-.15,3.14c0,1.05,0,2.1.07,3.16a24.11,24.11,0,0,1-.69-6.35,15.42,15.42,0,0,1,.4-3.22,10,10,0,0,1,.54-1.57,11,11,0,0,1,.79-1.45,6.88,6.88,0,0,0,.93-2.79,18.47,18.47,0,0,0,.2-3.08,29.89,29.89,0,0,0-.2-3.13C108.64,340.19,108.48,339.15,108.31,338.1Z" style="fill:#407BFF"></path><path d="M99.59,365.62a3,3,0,0,1,1.33,1,10.14,10.14,0,0,1,1,1.4,23.63,23.63,0,0,1,1.35,3.1A48.68,48.68,0,0,1,105,377.6c.45,2.19.81,4.39,1,6.61a43.79,43.79,0,0,1,.35,6.68c-.15-1.11-.32-2.2-.53-3.29s-.37-2.19-.58-3.28c-.41-2.17-.81-4.35-1.27-6.51s-1-4.32-1.53-6.44a25.25,25.25,0,0,0-1-3.11,11.17,11.17,0,0,0-.73-1.47A3.22,3.22,0,0,0,99.59,365.62Z" style="fill:#407BFF"></path><path d="M93.51,366.57a28,28,0,0,0-1,6.07,23,23,0,0,0,.44,6,20.09,20.09,0,0,0,2,5.7,29.39,29.39,0,0,0,3.43,5.1c-.39-.34-.77-.7-1.15-1.06a11.53,11.53,0,0,1-1.1-1.11,19.87,19.87,0,0,1-3.3-5.38c-.2-.49-.32-1-.49-1.51a10.22,10.22,0,0,1-.39-1.54,19.4,19.4,0,0,1-.24-6.31A18.6,18.6,0,0,1,93.51,366.57Z" style="fill:#407BFF"></path><path d="M126.7,350.47a27.69,27.69,0,0,0,3.18-1,8.85,8.85,0,0,0,1.39-.75,11.14,11.14,0,0,0,1.31-1.08,3.2,3.2,0,0,1-.78,1.66,4.28,4.28,0,0,1-1.52,1.08,5.16,5.16,0,0,1-1.8.4A4.2,4.2,0,0,1,126.7,350.47Z" style="fill:#407BFF"></path><path d="M125.37,346a4.31,4.31,0,0,1,1.18-1.4,4.82,4.82,0,0,1,1.66-.88,3.75,3.75,0,0,1,1.94,0,2.71,2.71,0,0,1,1.5,1.14,6.28,6.28,0,0,0-1.64-.37,5.63,5.63,0,0,0-1.52.21,11.08,11.08,0,0,0-1.53.58Z" style="fill:#407BFF"></path><path d="M86.48,371.92a37.8,37.8,0,0,0-4-2.84,5.41,5.41,0,0,0-2.11-.78,4,4,0,0,0-2.26.43,3,3,0,0,1,2.29-1.21,4.56,4.56,0,0,1,2.57.69,8.62,8.62,0,0,1,2,1.62A8.37,8.37,0,0,1,86.48,371.92Z" style="fill:#407BFF"></path><path d="M86.48,376.46a11.23,11.23,0,0,1-2.92.65,12.18,12.18,0,0,1-3-.1,6.35,6.35,0,0,1-2.87-1.16,3.35,3.35,0,0,1-1.4-2.67,4.08,4.08,0,0,0,1.83,2,8.14,8.14,0,0,0,2.61.83A48.42,48.42,0,0,0,86.48,376.46Z" style="fill:#407BFF"></path></g><g id="freepik--World--inject-13"><path d="M216.59,333.65c-3,0-6.1-.15-9.13-.44-1.81-.17-3.64-.4-5.43-.67a.57.57,0,0,1-.47-.63.56.56,0,0,1,.64-.47c1.77.27,3.57.5,5.37.67a93.85,93.85,0,0,0,11.11.4.56.56,0,0,1,0,1.11C218,333.64,217.3,333.65,216.59,333.65Zm5.43-.16a.56.56,0,0,1,0-1.11c1.83-.1,3.68-.26,5.49-.48a.55.55,0,0,1,.61.49.56.56,0,0,1-.48.62c-1.83.21-3.7.37-5.56.48Zm-30.75-3.25-.15,0L189,329.6a.55.55,0,1,1,.32-1.06l2.12.61a.55.55,0,0,1-.15,1.09Zm52.54-.61a.55.55,0,0,1-.16-1.08c.7-.21,1.4-.43,2.09-.66a.55.55,0,0,1,.35,1.05c-.7.23-1.41.46-2.12.67A.47.47,0,0,1,243.81,329.63Zm12.41-4.73a.53.53,0,0,1-.5-.32.55.55,0,0,1,.27-.73,96.07,96.07,0,0,0,14.32-8.24.55.55,0,0,1,.77.14.56.56,0,0,1-.14.77,95.58,95.58,0,0,1-14.49,8.33A.46.46,0,0,1,256.22,324.9Zm-82.51-1.45a.57.57,0,0,1-.25-.06c-1.66-.84-3.31-1.74-4.9-2.67a.55.55,0,1,1,.55-1c1.58.92,3.21,1.8,4.85,2.63a.55.55,0,0,1-.25,1.05ZM166,319.07a.53.53,0,0,1-.3-.09,96,96,0,0,1-13.29-10.13.56.56,0,1,1,.75-.82,95.11,95.11,0,0,0,13.13,10,.55.55,0,0,1,.18.76A.56.56,0,0,1,166,319.07Zm107.33-4.4a.58.58,0,0,1-.45-.22.57.57,0,0,1,.11-.78c1.47-1.1,2.92-2.26,4.31-3.44a.54.54,0,0,1,.78.07.55.55,0,0,1-.06.78c-1.41,1.19-2.88,2.36-4.36,3.48A.59.59,0,0,1,273.32,314.67ZM145,301.06a.59.59,0,0,1-.42-.19c-.49-.56-1-1.13-1.44-1.7a.55.55,0,0,1,.07-.78.54.54,0,0,1,.78.07c.47.56.95,1.13,1.43,1.68a.56.56,0,0,1-.42.92Zm144.31-1.66a.53.53,0,0,1-.35-.13.55.55,0,0,1-.08-.78c.47-.56.94-1.14,1.39-1.71a.56.56,0,0,1,.87.69c-.46.58-.93,1.16-1.4,1.73A.57.57,0,0,1,289.34,299.4Zm7.76-10.81a.51.51,0,0,1-.29-.08.55.55,0,0,1-.18-.76A93.92,93.92,0,0,0,304,273a.56.56,0,0,1,.72-.31.56.56,0,0,1,.32.72,94.86,94.86,0,0,1-7.48,14.95A.54.54,0,0,1,297.1,288.59Zm-162.94-2.9a.57.57,0,0,1-.49-.28c-.91-1.6-1.79-3.26-2.61-4.92a.56.56,0,0,1,1-.49c.81,1.64,1.68,3.28,2.58,4.86a.56.56,0,0,1-.21.76A.54.54,0,0,1,134.16,285.69Zm-4-7.9a.55.55,0,0,1-.5-.32,94.21,94.21,0,0,1-5.49-15.78.55.55,0,1,1,1.07-.28,93.87,93.87,0,0,0,5.43,15.6.57.57,0,0,1-.28.74A.59.59,0,0,1,130.14,277.79Zm175.56-7.17a.41.41,0,0,1-.19,0,.55.55,0,0,1-.34-.7c.61-1.73,1.18-3.5,1.68-5.25a.55.55,0,0,1,.69-.38.55.55,0,0,1,.38.69c-.51,1.77-1.09,3.56-1.7,5.31A.57.57,0,0,1,305.7,270.62Zm-183.08-19.4a.55.55,0,0,1-.55-.49c-.1-.73-.18-1.47-.26-2.21a.55.55,0,1,1,1.1-.12c.08.73.16,1.46.26,2.19a.56.56,0,0,1-.48.62Zm188-2.19h-.06a.56.56,0,0,1-.49-.61c0-.35.07-.7.11-1s.07-.77.1-1.15a.55.55,0,0,1,.6-.5.55.55,0,0,1,.5.6c0,.38-.06.77-.1,1.15s-.07.71-.11,1.07A.55.55,0,0,1,310.57,249Zm.49-13.29a.56.56,0,0,1-.56-.54,93,93,0,0,0-2-16.39.56.56,0,0,1,1.09-.23,94.37,94.37,0,0,1,2,16.59.56.56,0,0,1-.53.57Zm-189-3.34h0a.55.55,0,0,1-.51-.59c0-.79.12-1.58.19-2.37q.15-1.6.36-3.18a.55.55,0,0,1,.62-.48.55.55,0,0,1,.48.62c-.14,1-.25,2.09-.35,3.15-.08.78-.14,1.56-.2,2.33A.55.55,0,0,1,122.08,232.4Zm1-8.81H123a.55.55,0,0,1-.46-.63,96.11,96.11,0,0,1,4.14-16.19.56.56,0,0,1,1,.37,93.87,93.87,0,0,0-4.09,16A.56.56,0,0,1,123.11,223.59ZM308.29,216a.54.54,0,0,1-.53-.42c-.45-1.77-.95-3.55-1.5-5.3a.55.55,0,0,1,.36-.69.56.56,0,0,1,.7.36c.55,1.77,1.06,3.57,1.51,5.36a.54.54,0,0,1-.4.67A.34.34,0,0,1,308.29,216ZM131.52,197.27a.53.53,0,0,1-.24-.06.54.54,0,0,1-.25-.74c.33-.67.66-1.33,1-2a.55.55,0,0,1,.75-.24.56.56,0,0,1,.23.75c-.34.65-.67,1.31-1,2A.55.55,0,0,1,131.52,197.27Zm168.92-1.94a.55.55,0,0,1-.5-.29c-.34-.66-.68-1.3-1-1.94a.56.56,0,0,1,.22-.76.55.55,0,0,1,.75.22c.36.65.71,1.3,1.06,2a.56.56,0,0,1-.24.75A.57.57,0,0,1,300.44,195.33Zm-7-11.32a.52.52,0,0,1-.45-.24,95.13,95.13,0,0,0-10.75-12.54.56.56,0,0,1,.78-.8,96,96,0,0,1,10.87,12.7.55.55,0,0,1-.13.77A.56.56,0,0,1,293.48,184Zm-152-2.72a.54.54,0,0,1-.34-.12.56.56,0,0,1-.1-.78c1.13-1.46,2.32-2.91,3.53-4.31a.57.57,0,0,1,.79-.06.55.55,0,0,1,0,.78c-1.2,1.39-2.37,2.82-3.49,4.27A.57.57,0,0,1,141.48,181.29Zm5.74-6.77a.57.57,0,0,1-.38-.15.55.55,0,0,1,0-.78,95.49,95.49,0,0,1,12.42-11.18.54.54,0,0,1,.77.11.54.54,0,0,1-.1.77,94.69,94.69,0,0,0-12.28,11.05A.55.55,0,0,1,147.22,174.52Zm133-5.42a.55.55,0,0,1-.37-.15c-1.35-1.23-2.76-2.44-4.18-3.6a.55.55,0,1,1,.7-.86c1.44,1.17,2.86,2.4,4.23,3.64a.56.56,0,0,1,0,.79A.55.55,0,0,1,280.25,169.1ZM168.8,157.26a.54.54,0,0,1-.48-.27.56.56,0,0,1,.2-.76l1.94-1.1a.55.55,0,1,1,.53,1c-.64.35-1.28.72-1.91,1.09A.58.58,0,0,1,168.8,157.26Zm93.48-1.08a.54.54,0,0,1-.27-.07q-1-.54-1.95-1.05a.55.55,0,0,1,.52-1c.66.34,1.32.7,2,1.06a.56.56,0,0,1-.27,1Zm-12.07-5.61a.64.64,0,0,1-.2,0,92.85,92.85,0,0,0-15.89-4.49.56.56,0,0,1-.44-.65.54.54,0,0,1,.64-.44,94.81,94.81,0,0,1,16.08,4.54.57.57,0,0,1,.33.72A.56.56,0,0,1,250.21,150.57Zm-64.3-1.14a.56.56,0,0,1-.53-.37.57.57,0,0,1,.35-.71c1.75-.6,3.54-1.15,5.32-1.64a.56.56,0,0,1,.3,1.07c-1.76.48-3.53,1-5.26,1.62Zm8.51-2.47a.55.55,0,0,1-.13-1.09,94.06,94.06,0,0,1,16.53-2.44.55.55,0,1,1,.07,1.1A94.61,94.61,0,0,0,194.55,147Zm36.52-1.47h-.08c-1.81-.28-3.65-.51-5.47-.68a.56.56,0,0,1,.1-1.11c1.84.18,3.71.41,5.54.69a.55.55,0,0,1-.09,1.1Zm-6.79-.79h0l-2.2-.15a.56.56,0,0,1,.06-1.11c.74,0,1.49.1,2.23.16a.56.56,0,0,1,0,1.11Z" style="fill:#407BFF"></path><path d="M128.6,239.08q0-4.38.36-8.64a87.87,87.87,0,0,1,86.89-79.86c.54,0,1.08,0,1.6,0a87.58,87.58,0,0,1,31.32,6.12h0a87.94,87.94,0,0,1,55.07,72.15q.48,4.44.52,9a87.88,87.88,0,1,1-175.76,1.25Z" style="fill:#407BFF"></path><g style="opacity:0.6000000000000001"><path d="M128.6,239.08q0-4.38.36-8.64a87.87,87.87,0,0,1,86.89-79.86c.54,0,1.08,0,1.6,0a87.58,87.58,0,0,1,31.32,6.12h0a87.94,87.94,0,0,1,55.07,72.15q.48,4.44.52,9a87.88,87.88,0,1,1-175.76,1.25Z" style="fill:#fff"></path></g><path d="M190.15,302.47c-1.65.16-2.4,2.19-2.73,3.85-.5,2.48-1,5-1.5,7.44,3,1.42,2.77,5.11,1.36,7.61a87.91,87.91,0,0,1-58.68-82.29q0-4.38.36-8.64a1.55,1.55,0,0,1,.22-.12c2.4-1.14,4.29.91,6.09,2.07.41.26,5.68,2.82,5.75,2.11a23.1,23.1,0,0,0,.36,6.89.75.75,0,0,0,.23.46c.34.23.73-.24.86-.64.32-1,.45-2.08.83-3.07a3.63,3.63,0,0,1,2.09-2.27c1-.32,2.13.06,3.19-.09a4.37,4.37,0,0,0,3-2.27,14.18,14.18,0,0,0,1.24-3.54c1.24,2.75,4.39,1.05,6.24,3.28.59.72,1.31,1.75,2.17,1.4s.91-1.73,1.79-1.84c.62-.07,1.07.6,1.16,1.21a6.47,6.47,0,0,0,.25,1.83,1.61,1.61,0,0,0,2.21.68c.67-.4.92-1.22,1.34-1.88s1.32-1.22,1.95-.76a1.2,1.2,0,0,1,.34.43c.61,1.17-.08,2.6-.9,3.64s-1.82,2.08-1.91,3.4A1.1,1.1,0,0,0,169,241a1.91,1.91,0,0,1,.32-.51c.34-.29.84,0,1.21.22a7.89,7.89,0,0,0,6,1.06l.45-8c.61,0,1-.06,1.2-.69a81.55,81.55,0,0,0,6.07,5.83,1.65,1.65,0,0,1,.64.77,5.29,5.29,0,0,1,0,1.05c.07,1.17,1.64,1.48,2.81,1.45.34.19.14.75-.2.94a6.68,6.68,0,0,0-1.07.44,1.51,1.51,0,0,0-.3,1.61,3.88,3.88,0,0,0,4.85,2.42,1.27,1.27,0,0,0,.59-.4c.29-.44,0-1,0-1.54-.22-2.08,2-1.6,3.06-1,1.4.78,2.18,2.84,2.44,4.32.31,1.72,1.61,13.17,5.43,11.59a1.72,1.72,0,0,0,.8-.82c.55-1,.51-2.29.92-3.4s1.66-2.11,2.69-1.54c.41.23.67.67,1.07.93,1.1.72,2.66-.15,3.85.4a10.07,10.07,0,0,1,1.43,1.1c.5.34,1.29.45,1.64,0s-.07-1.38.25-2a1.07,1.07,0,0,1,1.75.12,1.82,1.82,0,0,1-.3,2,2.48,2.48,0,0,0-.6.92c-.14.65.48,1.19,1,1.57l2.61,1.81a1.54,1.54,0,0,1-1.23,1.19c-.58.16-1.2.16-1.78.35-2.79.93-2.78,5.07-6.44,4.26a1.76,1.76,0,0,0-2-2c-1.34.33-2.21,2.24-3.54,1.86-.46-.13-.81-.53-1.28-.64-1.29-.31-1.92,1.67-2.29,2.52-1.2,2.8.67,3.14.6,5.64,0,1.14-.89,2.11-1.1,3.24s.17,2.1,0,3.15c-.38,2.87-4.18,1.13-5.86.79.91,1.63-.45,3.61-1.93,4.74-2.28,1.73-1.89,1.58-2.18,4.08a1.81,1.81,0,0,1-1.08,1.55c-1.09.39-2.15-.69-3.3-.8-.55-.06-1.11.12-1.66,0-1.44-.25-1.94-2-2.87-3.12a4,4,0,0,0-3.41-1.38,8.76,8.76,0,0,0,0,2.23l2.42,1.49a5.47,5.47,0,0,1,1.89,1.61,4.23,4.23,0,0,0,.75,1.18c.71.6,1.78.24,2.7.18,2.26-.15,5.93,1.26,8.1,2s3.12,2.4,5.26,3.13a.68.68,0,0,1,.24,1,1.55,1.55,0,0,1-1,.55,4.16,4.16,0,0,1-2.68-.44c1.06.58-2,3.14-2.6,3.27-.92.21-2.16-.49-3.1-.53-2.32-.12-3.66.34-2.14,2.86.58,1,1.26,2.2.62,3.13a1.45,1.45,0,0,0-1.7.68,3.07,3.07,0,0,0-.29,1.94,2,2,0,0,0,.48,1.23,2.72,2.72,0,0,1,.54.47c.43.65-.45,1.36-1.18,1.64" style="fill:#407BFF;opacity:0.4;isolation:isolate"></path><path d="M267.05,201.8c-.72-.54-1.75-.1-2.5.4s-1.64,1.08-2.49.77c0-1,0-2.09-.05-3.14a.7.7,0,0,0-.16-.55.72.72,0,0,0-.56-.13l-2,.09c-.57.62,1,1.38.78,2.18-.1.36-.5.51-.83.69-2.77,1.49-1,4.58.24,6.26,1.46,1.95,1.37,4.62,1.21,7a3.31,3.31,0,0,1-.83,2.4c-.65.56-1.6.52-2.43.77-1.44.41-2.46,1.69-3.8,2.35-4.7,2.31-7.8-2.72-6.27-6.68.8-2,1.14-1.66.68-3.86-.19-.91.11-2-.84-2.62a1.68,1.68,0,0,0-2.54,1.28,7,7,0,0,0,.14,3.48c-1.39-.51-3.05-.18-4.57-.18a2,2,0,0,1-2.81,1.92c0-.69-.15-1.63-.83-1.63a1.15,1.15,0,0,0-.56.2c-.72.43-1.36,1-2.12,1.35-1.17.54-4.52.28-5,1.86-.1.27-.1.58-.2.85a1.31,1.31,0,0,1-1.56.67,1.75,1.75,0,0,1-1.14-1.36c-.08-.41,0-.84-.14-1.24-.56-2.12-2.75-.46-3.72-1a18.31,18.31,0,0,1-2.44-4.34,4.94,4.94,0,0,1-3.86,2.06c-1.69-.08-2.41-1.43-2.79-3.07s-.42-3.8-.8-5a2.08,2.08,0,0,1,.1-2c.59-.64,1.86-.4,2.3-1.16a2.28,2.28,0,0,0,.19-.81,3.1,3.1,0,0,1,3.68-2.38c.52-.34.53-1.08.56-1.7s.29-1.39.91-1.43,1,.88,1,1.59a8.18,8.18,0,0,1-.34,2.15,2.6,2.6,0,0,0-.19,1.59,2,2,0,0,0,.82.9,4.72,4.72,0,0,0,2.71,1.09,2,2,0,0,0,2.07-1.71,4.27,4.27,0,0,1,0-.8c.16-.66,1-.89,1.68-.8a6.11,6.11,0,0,0,2,.24c.67-.13,1.23-1,.75-1.5.9-.31,2.19-.47,2.54.41a2.79,2.79,0,0,1,.09.91c0,1.89,2.38,4.61,4,2.64,1-1.3-.76-3.66,1.13-4.73.9-.51,2.13-.06,3-.58.28-.33-.2-.78-.62-.89a4,4,0,0,0-3.78,1c-.54-1.1.29-2.72-.64-3.51s-2.7.14-3.39-.85a1.87,1.87,0,0,1-.25-1c-.13-1.71.4-4.83-2-5.12a3.2,3.2,0,0,1-.87-.12c-.83-.32-.82-1.48-.67-2.36.91-.39,1.88.28,2.75.74s2.25.54,2.54-.4c.22-.67-.31-1.51.14-2.06.2-.25.57-.35.74-.63.42-.66-.6-1.33-.79-2.1-.25-1.06,1.17-1.74,2.25-1.66s2.31.44,3.18-.2c.28-.21.49-.5.75-.72a4.58,4.58,0,0,1,3-.8c1.7,0-2.16-7-2.2-7.45-.29-3.23,3-5,4.93-7a20.08,20.08,0,0,0,2.45-3.65,88.66,88.66,0,0,1,54.5,67.92,29,29,0,0,1,.48,4.13c-2-.57-5.13-2.07-7.16-.85-2.59,1.55-.72,5.39-3.7,6.53-.74,0-.53-1.23-.95-1.83a2.51,2.51,0,0,0-1-.63c-.37-.19-.72-.58-.57-1-.65-.5-1.54.14-2.14.7a5.35,5.35,0,0,1-2.45,1.47c-2,.41-3.79-1-5.56-1.95a27.1,27.1,0,0,0-4.64-1.78c.76.05,1.15-1,.86-1.72a8.19,8.19,0,0,0-1.46-1.78c-.83-1-.19-2.19-.89-3.26-.86-1.34-2.52-2.28-2.66-3.86-.17-1.91,2-3.13,3.73-3.84-.94-2.17-3.5-3.65-3.5-6a6.13,6.13,0,0,1,.8-2.57q1.21-2.5,2.42-5a3.17,3.17,0,0,0,.48-2.2c-.23-.87-1.13-1.38-1.93-1.78l-2.62-1.31a2,2,0,0,0-1.16-.3,1.73,1.73,0,0,0-1,.76,9.4,9.4,0,0,0-1.87,6.58,37.38,37.38,0,0,1-9-2.52c.32,1.8-.42,3.77.14,5.45" style="fill:#407BFF;opacity:0.4;isolation:isolate"></path><path d="M194.39,216.47a3.53,3.53,0,0,0-1.56,2.54,17.62,17.62,0,0,0,.21,1.89,1.7,1.7,0,0,1-.69,1.66c-.71.39-1.56-.1-2.22-.57a2.69,2.69,0,0,1-1.25-1.46,13.9,13.9,0,0,1,0-1.44c-.08-1-.92-1.61-1.59-2.29s-1.24-1.74-.71-2.53c.35-.52,1-.7,1.43-1.21.9-1.23-.74-2.94,0-4.06.9-1.32,3.11-.65,4.33,0a11.52,11.52,0,0,1,3,3C197.92,215,197,214.56,194.39,216.47Z" style="fill:#407BFF;opacity:0.4;isolation:isolate"></path><path d="M161.37,170c14.7-12.76,35.22-19.32,54.48-19.45.54,0,1.08,0,1.6,0,2.55,2.86,3.89,8.29-1.14,9.31,0,.55.31.68.59,1.12.44.69-.29,1.56-1,1.87-2.48,1-5.48,1-5.09,4.31.47,4,2.36,1.46,4.43,2.9a4.43,4.43,0,0,1,.72.83c.88,1,2.43,1,3.77.92a1.53,1.53,0,0,1,1-2,2.54,2.54,0,0,0,.92-.23c.56-.41.14-1.37-.5-1.63a19.29,19.29,0,0,0-2-.35c-.66-.19-1.27-1-.87-1.54a1.17,1.17,0,0,1,.75-.41,3.76,3.76,0,0,1,3.36.93,1.58,1.58,0,0,1,1.58-1,1.56,1.56,0,0,1,1.35,1.3c.14,1-.53,2.3.34,2.76a2.19,2.19,0,0,0-2.17.68c-2,2.41-.82,8.25-6.2,7.27a18.9,18.9,0,0,0-2.56-.57,2,2,0,0,0-2.11,1.2c-1.13-1.63-4-1.28-5-3a2.12,2.12,0,0,1,.47-2.55.91.91,0,0,0,.31-.34c.12-.3-.14-.6-.19-.92-.07-.54.52-1,.59-1.51.1-.76-.78-1.25-1.53-1.44s-1.65-.47-1.8-1.22c0-.26,0-.53,0-.78a1.29,1.29,0,0,0-1.15-.93,3.8,3.8,0,0,0-1.56.23c-.34.29-.19.88.12,1.21a8.69,8.69,0,0,1,1,.92c.14.21-.56,4.77-.21,4.65-1.63.56-5.11.64-4.41,3.08.25.86.75,1.75.43,2.59q1.72-.48,3.45-.93c.28.37-.18.88-.63,1s-1,.1-1.29.45a1.39,1.39,0,0,0-.26.92l-.18,3.17c-.07,1.15-.22,2.47-1.17,3.12s-2.61.15-3.52-.8c-.22-.22-.46-.49-.77-.49a1.18,1.18,0,0,0-.73.41,4.71,4.71,0,0,1-4.13,1.25,3.1,3.1,0,0,1-2.42-3.29c.1-.56.34-1.26-.1-1.63-.25-.22-.69-.25-.81-.56s.36-.69.71-.95a1.71,1.71,0,0,0,.49-2.06c-.17-.36-3.35-1.66-3.84-1.42-1.13.55-.93,3.58-1.07,4.75a1.75,1.75,0,0,1-.5,1.23c-.58.42-1.4,0-1.84-.57s-.77-1.26-1.41-1.57a2.89,2.89,0,0,0-1.21-.21,3.11,3.11,0,0,0-2.36.58c-.28.28-.44.65-.72.93a2.4,2.4,0,0,1-2.51.31c-.84-.31-1.6-.83-2.46-1.06-1.84-.49-3.94.38-5.63-.49-.82-.42-1.4-1.59-.76-2.24s1.77-.46,1.92-1.24-1.69-1.83-2-2.48.3-1.48-.29-2.44C163.05,171.1,161.89,170.87,161.37,170Z" style="fill:#407BFF;opacity:0.4;isolation:isolate"></path><path d="M269.29,295.87c1-.7,2.21-1.11,2.58-2.54.49-2-.56-2.79-2.51-2.07a.79.79,0,0,1-.54.08c-.56-.18-.16-1,.21-1.47a4,4,0,0,0,.47-3.79c-.11-.3,5.37-.43,6-.1,2.12,1.16.74,5.66,3.19,4.9.17-1.71.08-3.48.08-5.22l2.5-.09c-.62,0-.25-3.17,0-3.52.83-1.36,3.36-.78,3.14-3.34-.29-3.25-6.57-3.9-5.82-.18a16.4,16.4,0,0,1-6.19.83c-.05.66-.09,1.33-.13,2a1.78,1.78,0,0,1-1.62.13,5,5,0,0,1,.36-5.47c-.71-1.1.16-2.52,1-3.53-2.3-1.68-1.64-6,1.06-6.86s5.81,2.09,5,4.82a6.3,6.3,0,0,1,3.55,1.63,8.33,8.33,0,0,1,6.09-7.51c1.68-.43,3.68-.4,4.82-1.71.51-.58.77-1.34,1.24-1.95,1.08-1.36,3-1.64,4.73-1.74,1.16-.06,2.33-.08,3.49-.06a88,88,0,0,1-32.81,49.76,3.56,3.56,0,0,1-1.78-.27c-1-.53-1.29-1.77-1.49-2.87-.79-4.29-.35-7,3.14-9.63Z" style="fill:#407BFF;opacity:0.4;isolation:isolate"></path><path d="M190.15,302.47c-1.65.16-2.4,2.19-2.73,3.85-.5,2.48-1,5-1.5,7.44,3,1.42,2.77,5.11,1.36,7.61a87.91,87.91,0,0,1-58.68-82.29q0-4.38.36-8.64a1.55,1.55,0,0,1,.22-.12c2.4-1.14,4.29.91,6.09,2.07.41.26,5.68,2.82,5.75,2.11a23.1,23.1,0,0,0,.36,6.89.75.75,0,0,0,.23.46c.34.23.73-.24.86-.64.32-1,.45-2.08.83-3.07a3.63,3.63,0,0,1,2.09-2.27c1-.32,2.13.06,3.19-.09a4.37,4.37,0,0,0,3-2.27,14.18,14.18,0,0,0,1.24-3.54c1.24,2.75,4.39,1.05,6.24,3.28.59.72,1.31,1.75,2.17,1.4s.91-1.73,1.79-1.84c.62-.07,1.07.6,1.16,1.21a6.47,6.47,0,0,0,.25,1.83,1.61,1.61,0,0,0,2.21.68c.67-.4.92-1.22,1.34-1.88s1.32-1.22,1.95-.76a1.2,1.2,0,0,1,.34.43c.61,1.17-.08,2.6-.9,3.64s-1.82,2.08-1.91,3.4A1.1,1.1,0,0,0,169,241a1.91,1.91,0,0,1,.32-.51c.34-.29.84,0,1.21.22a7.89,7.89,0,0,0,6,1.06l.45-8c.61,0,1-.06,1.2-.69a81.55,81.55,0,0,0,6.07,5.83,1.65,1.65,0,0,1,.64.77,5.29,5.29,0,0,1,0,1.05c.07,1.17,1.64,1.48,2.81,1.45.34.19.14.75-.2.94a6.68,6.68,0,0,0-1.07.44,1.51,1.51,0,0,0-.3,1.61,3.88,3.88,0,0,0,4.85,2.42,1.27,1.27,0,0,0,.59-.4c.29-.44,0-1,0-1.54-.22-2.08,2-1.6,3.06-1,1.4.78,2.18,2.84,2.44,4.32.31,1.72,1.61,13.17,5.43,11.59a1.72,1.72,0,0,0,.8-.82c.55-1,.51-2.29.92-3.4s1.66-2.11,2.69-1.54c.41.23.67.67,1.07.93,1.1.72,2.66-.15,3.85.4a10.07,10.07,0,0,1,1.43,1.1c.5.34,1.29.45,1.64,0s-.07-1.38.25-2a1.07,1.07,0,0,1,1.75.12,1.82,1.82,0,0,1-.3,2,2.48,2.48,0,0,0-.6.92c-.14.65.48,1.19,1,1.57l2.61,1.81a1.54,1.54,0,0,1-1.23,1.19c-.58.16-1.2.16-1.78.35-2.79.93-2.78,5.07-6.44,4.26a1.76,1.76,0,0,0-2-2c-1.34.33-2.21,2.24-3.54,1.86-.46-.13-.81-.53-1.28-.64-1.29-.31-1.92,1.67-2.29,2.52-1.2,2.8.67,3.14.6,5.64,0,1.14-.89,2.11-1.1,3.24s.17,2.1,0,3.15c-.38,2.87-4.18,1.13-5.86.79.91,1.63-.45,3.61-1.93,4.74-2.28,1.73-1.89,1.58-2.18,4.08a1.81,1.81,0,0,1-1.08,1.55c-1.09.39-2.15-.69-3.3-.8-.55-.06-1.11.12-1.66,0-1.44-.25-1.94-2-2.87-3.12a4,4,0,0,0-3.41-1.38,8.76,8.76,0,0,0,0,2.23l2.42,1.49a5.47,5.47,0,0,1,1.89,1.61,4.23,4.23,0,0,0,.75,1.18c.71.6,1.78.24,2.7.18,2.26-.15,5.93,1.26,8.1,2s3.12,2.4,5.26,3.13a.68.68,0,0,1,.24,1,1.55,1.55,0,0,1-1,.55,4.16,4.16,0,0,1-2.68-.44c1.06.58-2,3.14-2.6,3.27-.92.21-2.16-.49-3.1-.53-2.32-.12-3.66.34-2.14,2.86.58,1,1.26,2.2.62,3.13a1.45,1.45,0,0,0-1.7.68,3.07,3.07,0,0,0-.29,1.94,2,2,0,0,0,.48,1.23,2.72,2.72,0,0,1,.54.47c.43.65-.45,1.36-1.18,1.64" style="fill:#fff;opacity:0.7000000000000001;isolation:isolate"></path><path d="M267.05,201.8c-.72-.54-1.75-.1-2.5.4s-1.64,1.08-2.49.77c0-1,0-2.09-.05-3.14a.7.7,0,0,0-.16-.55.72.72,0,0,0-.56-.13l-2,.09c-.57.62,1,1.38.78,2.18-.1.36-.5.51-.83.69-2.77,1.49-1,4.58.24,6.26,1.46,1.95,1.37,4.62,1.21,7a3.31,3.31,0,0,1-.83,2.4c-.65.56-1.6.52-2.43.77-1.44.41-2.46,1.69-3.8,2.35-4.7,2.31-7.8-2.72-6.27-6.68.8-2,1.14-1.66.68-3.86-.19-.91.11-2-.84-2.62a1.68,1.68,0,0,0-2.54,1.28,7,7,0,0,0,.14,3.48c-1.39-.51-3.05-.18-4.57-.18a2,2,0,0,1-2.81,1.92c0-.69-.15-1.63-.83-1.63a1.15,1.15,0,0,0-.56.2c-.72.43-1.36,1-2.12,1.35-1.17.54-4.52.28-5,1.86-.1.27-.1.58-.2.85a1.31,1.31,0,0,1-1.56.67,1.75,1.75,0,0,1-1.14-1.36c-.08-.41,0-.84-.14-1.24-.56-2.12-2.75-.46-3.72-1a18.31,18.31,0,0,1-2.44-4.34,4.94,4.94,0,0,1-3.86,2.06c-1.69-.08-2.41-1.43-2.79-3.07s-.42-3.8-.8-5a2.08,2.08,0,0,1,.1-2c.59-.64,1.86-.4,2.3-1.16a2.28,2.28,0,0,0,.19-.81,3.1,3.1,0,0,1,3.68-2.38c.52-.34.53-1.08.56-1.7s.29-1.39.91-1.43,1,.88,1,1.59a8.18,8.18,0,0,1-.34,2.15,2.6,2.6,0,0,0-.19,1.59,2,2,0,0,0,.82.9,4.72,4.72,0,0,0,2.71,1.09,2,2,0,0,0,2.07-1.71,4.27,4.27,0,0,1,0-.8c.16-.66,1-.89,1.68-.8a6.11,6.11,0,0,0,2,.24c.67-.13,1.23-1,.75-1.5.9-.31,2.19-.47,2.54.41a2.79,2.79,0,0,1,.09.91c0,1.89,2.38,4.61,4,2.64,1-1.3-.76-3.66,1.13-4.73.9-.51,2.13-.06,3-.58.28-.33-.2-.78-.62-.89a4,4,0,0,0-3.78,1c-.54-1.1.29-2.72-.64-3.51s-2.7.14-3.39-.85a1.87,1.87,0,0,1-.25-1c-.13-1.71.4-4.83-2-5.12a3.2,3.2,0,0,1-.87-.12c-.83-.32-.82-1.48-.67-2.36.91-.39,1.88.28,2.75.74s2.25.54,2.54-.4c.22-.67-.31-1.51.14-2.06.2-.25.57-.35.74-.63.42-.66-.6-1.33-.79-2.1-.25-1.06,1.17-1.74,2.25-1.66s2.31.44,3.18-.2c.28-.21.49-.5.75-.72a4.58,4.58,0,0,1,3-.8c1.7,0-2.16-7-2.2-7.45-.29-3.23,3-5,4.93-7a20.08,20.08,0,0,0,2.45-3.65,88.66,88.66,0,0,1,54.5,67.92,29,29,0,0,1,.48,4.13c-2-.57-5.13-2.07-7.16-.85-2.59,1.55-.72,5.39-3.7,6.53-.74,0-.53-1.23-.95-1.83a2.51,2.51,0,0,0-1-.63c-.37-.19-.72-.58-.57-1-.65-.5-1.54.14-2.14.7a5.35,5.35,0,0,1-2.45,1.47c-2,.41-3.79-1-5.56-1.95a27.1,27.1,0,0,0-4.64-1.78c.76.05,1.15-1,.86-1.72a8.19,8.19,0,0,0-1.46-1.78c-.83-1-.19-2.19-.89-3.26-.86-1.34-2.52-2.28-2.66-3.86-.17-1.91,2-3.13,3.73-3.84-.94-2.17-3.5-3.65-3.5-6a6.13,6.13,0,0,1,.8-2.57q1.21-2.5,2.42-5a3.17,3.17,0,0,0,.48-2.2c-.23-.87-1.13-1.38-1.93-1.78l-2.62-1.31a2,2,0,0,0-1.16-.3,1.73,1.73,0,0,0-1,.76,9.4,9.4,0,0,0-1.87,6.58,37.38,37.38,0,0,1-9-2.52c.32,1.8-.42,3.77.14,5.45" style="fill:#fff;opacity:0.7000000000000001;isolation:isolate"></path><path d="M194.39,216.47a3.53,3.53,0,0,0-1.56,2.54,17.62,17.62,0,0,0,.21,1.89,1.7,1.7,0,0,1-.69,1.66c-.71.39-1.56-.1-2.22-.57a2.69,2.69,0,0,1-1.25-1.46,13.9,13.9,0,0,1,0-1.44c-.08-1-.92-1.61-1.59-2.29s-1.24-1.74-.71-2.53c.35-.52,1-.7,1.43-1.21.9-1.23-.74-2.94,0-4.06.9-1.32,3.11-.65,4.33,0a11.52,11.52,0,0,1,3,3C197.92,215,197,214.56,194.39,216.47Z" style="fill:#fff;opacity:0.7000000000000001;isolation:isolate"></path><path d="M161.37,170c14.7-12.76,35.22-19.32,54.48-19.45.54,0,1.08,0,1.6,0,2.55,2.86,3.89,8.29-1.14,9.31,0,.55.31.68.59,1.12.44.69-.29,1.56-1,1.87-2.48,1-5.48,1-5.09,4.31.47,4,2.36,1.46,4.43,2.9a4.43,4.43,0,0,1,.72.83c.88,1,2.43,1,3.77.92a1.53,1.53,0,0,1,1-2,2.54,2.54,0,0,0,.92-.23c.56-.41.14-1.37-.5-1.63a19.29,19.29,0,0,0-2-.35c-.66-.19-1.27-1-.87-1.54a1.17,1.17,0,0,1,.75-.41,3.76,3.76,0,0,1,3.36.93,1.58,1.58,0,0,1,1.58-1,1.56,1.56,0,0,1,1.35,1.3c.14,1-.53,2.3.34,2.76a2.19,2.19,0,0,0-2.17.68c-2,2.41-.82,8.25-6.2,7.27a18.9,18.9,0,0,0-2.56-.57,2,2,0,0,0-2.11,1.2c-1.13-1.63-4-1.28-5-3a2.12,2.12,0,0,1,.47-2.55.91.91,0,0,0,.31-.34c.12-.3-.14-.6-.19-.92-.07-.54.52-1,.59-1.51.1-.76-.78-1.25-1.53-1.44s-1.65-.47-1.8-1.22c0-.26,0-.53,0-.78a1.29,1.29,0,0,0-1.15-.93,3.8,3.8,0,0,0-1.56.23c-.34.29-.19.88.12,1.21a8.69,8.69,0,0,1,1,.92c.14.21-.56,4.77-.21,4.65-1.63.56-5.11.64-4.41,3.08.25.86.75,1.75.43,2.59q1.72-.48,3.45-.93c.28.37-.18.88-.63,1s-1,.1-1.29.45a1.39,1.39,0,0,0-.26.92l-.18,3.17c-.07,1.15-.22,2.47-1.17,3.12s-2.61.15-3.52-.8c-.22-.22-.46-.49-.77-.49a1.18,1.18,0,0,0-.73.41,4.71,4.71,0,0,1-4.13,1.25,3.1,3.1,0,0,1-2.42-3.29c.1-.56.34-1.26-.1-1.63-.25-.22-.69-.25-.81-.56s.36-.69.71-.95a1.71,1.71,0,0,0,.49-2.06c-.17-.36-3.35-1.66-3.84-1.42-1.13.55-.93,3.58-1.07,4.75a1.75,1.75,0,0,1-.5,1.23c-.58.42-1.4,0-1.84-.57s-.77-1.26-1.41-1.57a2.89,2.89,0,0,0-1.21-.21,3.11,3.11,0,0,0-2.36.58c-.28.28-.44.65-.72.93a2.4,2.4,0,0,1-2.51.31c-.84-.31-1.6-.83-2.46-1.06-1.84-.49-3.94.38-5.63-.49-.82-.42-1.4-1.59-.76-2.24s1.77-.46,1.92-1.24-1.69-1.83-2-2.48.3-1.48-.29-2.44C163.05,171.1,161.89,170.87,161.37,170Z" style="fill:#fff;opacity:0.7000000000000001;isolation:isolate"></path><path d="M269.29,295.87c1-.7,2.21-1.11,2.58-2.54.49-2-.56-2.79-2.51-2.07a.79.79,0,0,1-.54.08c-.56-.18-.16-1,.21-1.47a4,4,0,0,0,.47-3.79c-.11-.3,5.37-.43,6-.1,2.12,1.16.74,5.66,3.19,4.9.17-1.71.08-3.48.08-5.22l2.5-.09c-.62,0-.25-3.17,0-3.52.83-1.36,3.36-.78,3.14-3.34-.29-3.25-6.57-3.9-5.82-.18a16.4,16.4,0,0,1-6.19.83c-.05.66-.09,1.33-.13,2a1.78,1.78,0,0,1-1.62.13,5,5,0,0,1,.36-5.47c-.71-1.1.16-2.52,1-3.53-2.3-1.68-1.64-6,1.06-6.86s5.81,2.09,5,4.82a6.3,6.3,0,0,1,3.55,1.63,8.33,8.33,0,0,1,6.09-7.51c1.68-.43,3.68-.4,4.82-1.71.51-.58.77-1.34,1.24-1.95,1.08-1.36,3-1.64,4.73-1.74,1.16-.06,2.33-.08,3.49-.06a88,88,0,0,1-32.81,49.76,3.56,3.56,0,0,1-1.78-.27c-1-.53-1.29-1.77-1.49-2.87-.79-4.29-.35-7,3.14-9.63Z" style="fill:#fff;opacity:0.7000000000000001;isolation:isolate"></path><g style="opacity:0.7000000000000001;isolation:isolate"><path d="M216.59,333.65c-3,0-6.1-.15-9.13-.44-1.81-.17-3.64-.4-5.43-.67a.57.57,0,0,1-.47-.63.56.56,0,0,1,.64-.47c1.77.27,3.57.5,5.37.67a93.85,93.85,0,0,0,11.11.4.56.56,0,0,1,0,1.11C218,333.64,217.3,333.65,216.59,333.65Zm5.43-.16a.56.56,0,0,1,0-1.11c1.83-.1,3.68-.26,5.49-.48a.55.55,0,0,1,.61.49.56.56,0,0,1-.48.62c-1.83.21-3.7.37-5.56.48Zm-30.75-3.25-.15,0L189,329.6a.55.55,0,1,1,.32-1.06l2.12.61a.55.55,0,0,1-.15,1.09Zm52.54-.61a.55.55,0,0,1-.16-1.08c.7-.21,1.4-.43,2.09-.66a.55.55,0,0,1,.35,1.05c-.7.23-1.41.46-2.12.67A.47.47,0,0,1,243.81,329.63Zm12.41-4.73a.53.53,0,0,1-.5-.32.55.55,0,0,1,.27-.73,96.07,96.07,0,0,0,14.32-8.24.55.55,0,0,1,.77.14.56.56,0,0,1-.14.77,95.58,95.58,0,0,1-14.49,8.33A.46.46,0,0,1,256.22,324.9Zm-82.51-1.45a.57.57,0,0,1-.25-.06c-1.66-.84-3.31-1.74-4.9-2.67a.55.55,0,1,1,.55-1c1.58.92,3.21,1.8,4.85,2.63a.55.55,0,0,1-.25,1.05ZM166,319.07a.53.53,0,0,1-.3-.09,96,96,0,0,1-13.29-10.13.56.56,0,1,1,.75-.82,95.11,95.11,0,0,0,13.13,10,.55.55,0,0,1,.18.76A.56.56,0,0,1,166,319.07Zm107.33-4.4a.58.58,0,0,1-.45-.22.57.57,0,0,1,.11-.78c1.47-1.1,2.92-2.26,4.31-3.44a.54.54,0,0,1,.78.07.55.55,0,0,1-.06.78c-1.41,1.19-2.88,2.36-4.36,3.48A.59.59,0,0,1,273.32,314.67ZM145,301.06a.59.59,0,0,1-.42-.19c-.49-.56-1-1.13-1.44-1.7a.55.55,0,0,1,.07-.78.54.54,0,0,1,.78.07c.47.56.95,1.13,1.43,1.68a.56.56,0,0,1-.42.92Zm144.31-1.66a.53.53,0,0,1-.35-.13.55.55,0,0,1-.08-.78c.47-.56.94-1.14,1.39-1.71a.56.56,0,0,1,.87.69c-.46.58-.93,1.16-1.4,1.73A.57.57,0,0,1,289.34,299.4Zm7.76-10.81a.51.51,0,0,1-.29-.08.55.55,0,0,1-.18-.76A93.92,93.92,0,0,0,304,273a.56.56,0,0,1,.72-.31.56.56,0,0,1,.32.72,94.86,94.86,0,0,1-7.48,14.95A.54.54,0,0,1,297.1,288.59Zm-162.94-2.9a.57.57,0,0,1-.49-.28c-.91-1.6-1.79-3.26-2.61-4.92a.56.56,0,0,1,1-.49c.81,1.64,1.68,3.28,2.58,4.86a.56.56,0,0,1-.21.76A.54.54,0,0,1,134.16,285.69Zm-4-7.9a.55.55,0,0,1-.5-.32,94.21,94.21,0,0,1-5.49-15.78.55.55,0,1,1,1.07-.28,93.87,93.87,0,0,0,5.43,15.6.57.57,0,0,1-.28.74A.59.59,0,0,1,130.14,277.79Zm175.56-7.17a.41.41,0,0,1-.19,0,.55.55,0,0,1-.34-.7c.61-1.73,1.18-3.5,1.68-5.25a.55.55,0,0,1,.69-.38.55.55,0,0,1,.38.69c-.51,1.77-1.09,3.56-1.7,5.31A.57.57,0,0,1,305.7,270.62Zm-183.08-19.4a.55.55,0,0,1-.55-.49c-.1-.73-.18-1.47-.26-2.21a.55.55,0,1,1,1.1-.12c.08.73.16,1.46.26,2.19a.56.56,0,0,1-.48.62Zm188-2.19h-.06a.56.56,0,0,1-.49-.61c0-.35.07-.7.11-1s.07-.77.1-1.15a.55.55,0,0,1,.6-.5.55.55,0,0,1,.5.6c0,.38-.06.77-.1,1.15s-.07.71-.11,1.07A.55.55,0,0,1,310.57,249Zm.49-13.29a.56.56,0,0,1-.56-.54,93,93,0,0,0-2-16.39.56.56,0,0,1,1.09-.23,94.37,94.37,0,0,1,2,16.59.56.56,0,0,1-.53.57Zm-189-3.34h0a.55.55,0,0,1-.51-.59c0-.79.12-1.58.19-2.37q.15-1.6.36-3.18a.55.55,0,0,1,.62-.48.55.55,0,0,1,.48.62c-.14,1-.25,2.09-.35,3.15-.08.78-.14,1.56-.2,2.33A.55.55,0,0,1,122.08,232.4Zm1-8.81H123a.55.55,0,0,1-.46-.63,96.11,96.11,0,0,1,4.14-16.19.56.56,0,0,1,1,.37,93.87,93.87,0,0,0-4.09,16A.56.56,0,0,1,123.11,223.59ZM308.29,216a.54.54,0,0,1-.53-.42c-.45-1.77-.95-3.55-1.5-5.3a.55.55,0,0,1,.36-.69.56.56,0,0,1,.7.36c.55,1.77,1.06,3.57,1.51,5.36a.54.54,0,0,1-.4.67A.34.34,0,0,1,308.29,216ZM131.52,197.27a.53.53,0,0,1-.24-.06.54.54,0,0,1-.25-.74c.33-.67.66-1.33,1-2a.55.55,0,0,1,.75-.24.56.56,0,0,1,.23.75c-.34.65-.67,1.31-1,2A.55.55,0,0,1,131.52,197.27Zm168.92-1.94a.55.55,0,0,1-.5-.29c-.34-.66-.68-1.3-1-1.94a.56.56,0,0,1,.22-.76.55.55,0,0,1,.75.22c.36.65.71,1.3,1.06,2a.56.56,0,0,1-.24.75A.57.57,0,0,1,300.44,195.33Zm-7-11.32a.52.52,0,0,1-.45-.24,95.13,95.13,0,0,0-10.75-12.54.56.56,0,0,1,.78-.8,96,96,0,0,1,10.87,12.7.55.55,0,0,1-.13.77A.56.56,0,0,1,293.48,184Zm-152-2.72a.54.54,0,0,1-.34-.12.56.56,0,0,1-.1-.78c1.13-1.46,2.32-2.91,3.53-4.31a.57.57,0,0,1,.79-.06.55.55,0,0,1,0,.78c-1.2,1.39-2.37,2.82-3.49,4.27A.57.57,0,0,1,141.48,181.29Zm5.74-6.77a.57.57,0,0,1-.38-.15.55.55,0,0,1,0-.78,95.49,95.49,0,0,1,12.42-11.18.54.54,0,0,1,.77.11.54.54,0,0,1-.1.77,94.69,94.69,0,0,0-12.28,11.05A.55.55,0,0,1,147.22,174.52Zm133-5.42a.55.55,0,0,1-.37-.15c-1.35-1.23-2.76-2.44-4.18-3.6a.55.55,0,1,1,.7-.86c1.44,1.17,2.86,2.4,4.23,3.64a.56.56,0,0,1,0,.79A.55.55,0,0,1,280.25,169.1ZM168.8,157.26a.54.54,0,0,1-.48-.27.56.56,0,0,1,.2-.76l1.94-1.1a.55.55,0,1,1,.53,1c-.64.35-1.28.72-1.91,1.09A.58.58,0,0,1,168.8,157.26Zm93.48-1.08a.54.54,0,0,1-.27-.07q-1-.54-1.95-1.05a.55.55,0,0,1,.52-1c.66.34,1.32.7,2,1.06a.56.56,0,0,1-.27,1Zm-12.07-5.61a.64.64,0,0,1-.2,0,92.85,92.85,0,0,0-15.89-4.49.56.56,0,0,1-.44-.65.54.54,0,0,1,.64-.44,94.81,94.81,0,0,1,16.08,4.54.57.57,0,0,1,.33.72A.56.56,0,0,1,250.21,150.57Zm-64.3-1.14a.56.56,0,0,1-.53-.37.57.57,0,0,1,.35-.71c1.75-.6,3.54-1.15,5.32-1.64a.56.56,0,0,1,.3,1.07c-1.76.48-3.53,1-5.26,1.62Zm8.51-2.47a.55.55,0,0,1-.13-1.09,94.06,94.06,0,0,1,16.53-2.44.55.55,0,1,1,.07,1.1A94.61,94.61,0,0,0,194.55,147Zm36.52-1.47h-.08c-1.81-.28-3.65-.51-5.47-.68a.56.56,0,0,1,.1-1.11c1.84.18,3.71.41,5.54.69a.55.55,0,0,1-.09,1.1Zm-6.79-.79h0l-2.2-.15a.56.56,0,0,1,.06-1.11c.74,0,1.49.1,2.23.16a.56.56,0,0,1,0,1.11Z" style="fill:#fff"></path></g></g><g id="freepik--Currency--inject-13"><circle cx="118.14" cy="207.62" r="32.35" transform="translate(-70.46 61.02) rotate(-22.5)" style="fill:#407BFF"></circle><circle cx="118.14" cy="207.62" r="27.48" transform="translate(-112.21 144.35) rotate(-45)" style="opacity:0.2;isolation:isolate"></circle><path d="M137.93,188.55a27.48,27.48,0,0,0-38.85,38.86,27.48,27.48,0,1,1,38.85-38.86Z" style="opacity:0.2;isolation:isolate"></path><path d="M118.14,175.27a32.36,32.36,0,1,0,32.36,32.35A32.35,32.35,0,0,0,118.14,175.27Zm0,62.94a30.59,30.59,0,1,1,30.59-30.59A30.58,30.58,0,0,1,118.14,238.21Z" style="opacity:0.2;isolation:isolate"></path><path d="M144.6,189a37.42,37.42,0,0,1,.83,4.79,30.6,30.6,0,0,1-41.82,40.76,37.14,37.14,0,0,1-4.74-.94A32.36,32.36,0,0,0,144.6,189Z" style="opacity:0.2;isolation:isolate"></path><path d="M128.3,213.28l2.88,2.78a12.2,12.2,0,0,1-9.62,4.07c-6.14,0-11-3.58-12.5-8.9h-4V208.8h3.51a17.42,17.42,0,0,1,0-2.36H105.1V204h4c1.49-5.31,6.36-8.89,12.5-8.89a12.2,12.2,0,0,1,9.62,4.06l-2.88,2.75a8.54,8.54,0,0,0-6.49-2.85,8.38,8.38,0,0,0-8,4.93h10v2.43H113.16a11.17,11.17,0,0,0-.07,1.18,11,11,0,0,0,.07,1.18h10.63v2.43h-10a8.85,8.85,0,0,0,14.48,2.05Z" style="fill:#407BFF"></path><g style="opacity:0.2"><path d="M128.3,213.28l2.88,2.78a12.2,12.2,0,0,1-9.62,4.07c-6.14,0-11-3.58-12.5-8.9h-4V208.8h3.51a17.42,17.42,0,0,1,0-2.36H105.1V204h4c1.49-5.31,6.36-8.89,12.5-8.89a12.2,12.2,0,0,1,9.62,4.06l-2.88,2.75a8.54,8.54,0,0,0-6.49-2.85,8.38,8.38,0,0,0-8,4.93h10v2.43H113.16a11.17,11.17,0,0,0-.07,1.18,11,11,0,0,0,.07,1.18h10.63v2.43h-10a8.85,8.85,0,0,0,14.48,2.05Z" style="fill:#fff"></path></g><path d="M118.19,245.7c-1.21,0-2.44-.06-3.65-.18a38.49,38.49,0,0,1-4.92-.79.5.5,0,1,1,.22-1,38.55,38.55,0,0,0,4.79.78,37.68,37.68,0,0,0,9.9-.38.48.48,0,0,1,.58.4.49.49,0,0,1-.4.58A37.53,37.53,0,0,1,118.19,245.7Zm9.36-1.19a.5.5,0,0,1-.12-1A36.5,36.5,0,0,0,132.1,242a.5.5,0,0,1,.38.93,38.54,38.54,0,0,1-4.8,1.59Zm-27.16-3.27a.46.46,0,0,1-.23-.06c-.6-.32-1.19-.65-1.77-1a.5.5,0,0,1,.52-.86c.56.34,1.14.67,1.72,1a.51.51,0,0,1,.2.68A.49.49,0,0,1,100.39,241.24Zm44.31-6.54a.47.47,0,0,1-.35-.15.5.5,0,0,1,0-.71c.46-.46.92-.94,1.36-1.43a.5.5,0,0,1,.74.67c-.45.5-.92,1-1.4,1.47A.47.47,0,0,1,144.7,234.7Zm-57-4.55a.52.52,0,0,1-.41-.21,38.07,38.07,0,0,1-2.69-4.29.49.49,0,0,1,.2-.67.5.5,0,0,1,.68.2,38.37,38.37,0,0,0,2.62,4.17.51.51,0,0,1-.11.7A.46.46,0,0,1,87.71,230.15Zm64-5.13a.64.64,0,0,1-.23-.05.51.51,0,0,1-.22-.67,36.93,36.93,0,0,0,3.79-13.17c0-.34.06-.68.08-1a.5.5,0,0,1,1,.07c0,.35,0,.7-.09,1a38,38,0,0,1-3.88,13.52A.51.51,0,0,1,151.71,225Zm-68-1.8a.49.49,0,0,1-.45-.3,37.61,37.61,0,0,1-3.21-14.75.5.5,0,0,1,.5-.5h0a.49.49,0,0,1,.5.49,36.77,36.77,0,0,0,3.12,14.36.5.5,0,0,1-.25.66A.52.52,0,0,1,83.73,223.22Zm72-15.57a.51.51,0,0,1-.5-.49,38.23,38.23,0,0,0-.38-4.91.5.5,0,1,1,1-.15,38.62,38.62,0,0,1,.39,5.05.49.49,0,0,1-.49.5Zm-74-8.88-.12,0a.5.5,0,0,1-.36-.61c.16-.65.35-1.3.55-1.94a.5.5,0,0,1,.63-.33.49.49,0,0,1,.32.63q-.28.93-.54,1.89A.49.49,0,0,1,81.75,198.77Zm68.53-10.11a.52.52,0,0,1-.43-.24c-.34-.57-.7-1.12-1.07-1.66a.5.5,0,0,1,.83-.57c.38.56.75,1.13,1.1,1.71a.5.5,0,0,1-.17.68A.5.5,0,0,1,150.28,188.66ZM89.5,183.81a.49.49,0,0,1-.32-.12.51.51,0,0,1-.06-.71,39,39,0,0,1,3.53-3.63.5.5,0,0,1,.67.74,37.08,37.08,0,0,0-3.44,3.54A.49.49,0,0,1,89.5,183.81Zm53-4.26a.49.49,0,0,1-.32-.12,36.71,36.71,0,0,0-12.85-7.14.5.5,0,0,1,.3-1,37.64,37.64,0,0,1,13.2,7.34.51.51,0,0,1,0,.71A.52.52,0,0,1,142.54,179.55ZM95.29,178.3a.5.5,0,0,1-.31-.89,38,38,0,0,1,13.56-6.64.51.51,0,0,1,.61.36.5.5,0,0,1-.36.61,37,37,0,0,0-13.2,6.46A.49.49,0,0,1,95.29,178.3Zm31.34-6.78h-.11a37.73,37.73,0,0,0-4.87-.79.51.51,0,0,1-.45-.55.5.5,0,0,1,.55-.45,39.61,39.61,0,0,1,5,.81.5.5,0,0,1-.11,1Zm-6.07-.89h0c-.66,0-1.32-.07-2-.08a.5.5,0,0,1,0-1h0c.67,0,1.34,0,2,.08a.5.5,0,0,1,0,1Z" style="fill:#407BFF"></path><circle cx="301.54" cy="268.2" r="32.35" style="fill:#407BFF"></circle><circle cx="301.54" cy="268.2" r="27.48" transform="translate(-101.33 291.77) rotate(-45)" style="opacity:0.2;isolation:isolate"></circle><path d="M321.33,249.13A27.49,27.49,0,0,0,282.47,288a27.48,27.48,0,1,1,38.86-38.86Z" style="opacity:0.2;isolation:isolate"></path><path d="M301.54,235.84a32.36,32.36,0,1,0,32.35,32.36A32.36,32.36,0,0,0,301.54,235.84Zm0,63a30.59,30.59,0,1,1,30.58-30.59A30.59,30.59,0,0,1,301.54,298.79Z" style="opacity:0.2;isolation:isolate"></path><path d="M328,249.57a36.17,36.17,0,0,1,.82,4.8A30.59,30.59,0,0,1,287,295.12a37.12,37.12,0,0,1-4.74-.93A32.36,32.36,0,0,0,328,249.57Z" style="opacity:0.2;isolation:isolate"></path><path d="M303.19,280.63v3.89h-2.85v-3.85c-3.4-.21-6.7-1.32-8.51-2.89l1.56-3.5a13.52,13.52,0,0,0,6.95,2.64V270c-3.85-.94-8-2.19-8-7,0-3.54,2.57-6.63,8-7.15v-3.93h2.85v3.86a14.87,14.87,0,0,1,7.05,2.12l-1.43,3.51a14.33,14.33,0,0,0-5.62-1.88v7c3.85.93,8.06,2.15,8.06,7C311.25,277,308.64,280.08,303.19,280.63Zm-2.85-14.86v-6.19c-2.47.39-3.51,1.64-3.51,3.17S298.33,265.18,300.34,265.77Zm6.46,8c0-1.7-1.53-2.5-3.61-3.09v6.15C305.72,276.46,306.8,275.28,306.8,273.79Z" style="fill:#407BFF"></path><g style="opacity:0.2"><path d="M303.19,280.63v3.89h-2.85v-3.85c-3.4-.21-6.7-1.32-8.51-2.89l1.56-3.5a13.52,13.52,0,0,0,6.95,2.64V270c-3.85-.94-8-2.19-8-7,0-3.54,2.57-6.63,8-7.15v-3.93h2.85v3.86a14.87,14.87,0,0,1,7.05,2.12l-1.43,3.51a14.33,14.33,0,0,0-5.62-1.88v7c3.85.93,8.06,2.15,8.06,7C311.25,277,308.64,280.08,303.19,280.63Zm-2.85-14.86v-6.19c-2.47.39-3.51,1.64-3.51,3.17S298.33,265.18,300.34,265.77Zm6.46,8c0-1.7-1.53-2.5-3.61-3.09v6.15C305.72,276.46,306.8,275.28,306.8,273.79Z" style="fill:#fff"></path></g><path d="M301.58,306.27c-1.21,0-2.43-.06-3.65-.17a38.8,38.8,0,0,1-4.92-.8.48.48,0,0,1-.37-.59.5.5,0,0,1,.59-.38,37.49,37.49,0,0,0,14.7.39.5.5,0,0,1,.58.41.51.51,0,0,1-.41.58A38.35,38.35,0,0,1,301.58,306.27Zm9.37-1.19a.5.5,0,0,1-.49-.37.5.5,0,0,1,.36-.61,36.64,36.64,0,0,0,4.68-1.55.5.5,0,1,1,.37.92,38,38,0,0,1-4.8,1.6Zm-27.16-3.26a.53.53,0,0,1-.24-.06c-.6-.32-1.18-.65-1.76-1a.5.5,0,1,1,.52-.86c.56.34,1.13.67,1.71,1a.5.5,0,0,1,.21.68A.52.52,0,0,1,283.79,301.82Zm44.31-6.55a.54.54,0,0,1-.36-.14.51.51,0,0,1,0-.71c.47-.46.92-.94,1.36-1.43a.5.5,0,0,1,.71,0,.51.51,0,0,1,0,.71c-.46.5-.92,1-1.4,1.47A.54.54,0,0,1,328.1,295.27Zm-57-4.55a.49.49,0,0,1-.4-.2,37.55,37.55,0,0,1-2.69-4.29.49.49,0,0,1,.2-.68.5.5,0,0,1,.68.21,35.52,35.52,0,0,0,2.62,4.17.5.5,0,0,1-.41.79Zm64-5.12a.46.46,0,0,1-.22-.06.49.49,0,0,1-.22-.67,36.92,36.92,0,0,0,3.78-13.16c0-.34.06-.68.08-1a.51.51,0,0,1,.54-.47.5.5,0,0,1,.46.54c0,.35,0,.69-.08,1a37.79,37.79,0,0,1-3.89,13.52A.49.49,0,0,1,335.1,285.6Zm-68-1.8a.5.5,0,0,1-.46-.3,37.68,37.68,0,0,1-3.2-14.75.51.51,0,0,1,.49-.51h0a.5.5,0,0,1,.5.5,36.67,36.67,0,0,0,3.12,14.36.51.51,0,0,1-.26.66A.45.45,0,0,1,267.13,283.8Zm72-15.57a.5.5,0,0,1-.5-.5,38.37,38.37,0,0,0-.38-4.91.5.5,0,1,1,1-.14,37,37,0,0,1,.4,5,.51.51,0,0,1-.5.51Zm-74-8.89H265a.5.5,0,0,1-.36-.61c.17-.66.35-1.3.56-2a.5.5,0,0,1,.62-.33.51.51,0,0,1,.33.63c-.2.63-.38,1.26-.54,1.9A.5.5,0,0,1,265.15,259.34Zm68.52-10.11a.48.48,0,0,1-.42-.24c-.34-.56-.7-1.11-1.07-1.66a.49.49,0,0,1,.13-.69.5.5,0,0,1,.7.13c.38.56.74,1.12,1.09,1.7a.5.5,0,0,1-.17.69A.48.48,0,0,1,333.67,249.23Zm-60.77-4.85a.52.52,0,0,1-.33-.12.5.5,0,0,1-.06-.7,37.85,37.85,0,0,1,3.53-3.63.5.5,0,1,1,.67.74,35.87,35.87,0,0,0-3.43,3.54A.52.52,0,0,1,272.9,244.38Zm53-4.25a.52.52,0,0,1-.33-.12,36.69,36.69,0,0,0-12.84-7.15.5.5,0,1,1,.3-1,37.69,37.69,0,0,1,13.19,7.34.5.5,0,0,1-.32.88Zm-47.26-1.25a.47.47,0,0,1-.39-.2.5.5,0,0,1,.09-.7,37.82,37.82,0,0,1,13.55-6.63.5.5,0,0,1,.61.36.5.5,0,0,1-.35.61,36.7,36.7,0,0,0-13.2,6.46A.5.5,0,0,1,278.68,238.88ZM310,232.09h-.11a39.85,39.85,0,0,0-4.87-.79.49.49,0,0,1-.45-.54.5.5,0,0,1,.54-.45,38,38,0,0,1,5,.81.5.5,0,0,1-.11,1Zm-6.08-.88h0c-.66,0-1.32-.06-2-.07a.5.5,0,0,1,0-1h0c.67,0,1.35,0,2,.08a.49.49,0,0,1,.46.53A.5.5,0,0,1,304,231.21Z" style="fill:#407BFF"></path><circle cx="190.21" cy="336.49" r="32.35" style="fill:#407BFF"></circle><circle cx="190.21" cy="336.49" r="27.48" style="opacity:0.2;isolation:isolate"></circle><path d="M210,317.42a27.48,27.48,0,0,0-38.85,38.86A27.48,27.48,0,1,1,210,317.42Z" style="opacity:0.2;isolation:isolate"></path><path d="M190.21,304.14a32.36,32.36,0,1,0,32.35,32.35A32.35,32.35,0,0,0,190.21,304.14Zm0,62.94a30.59,30.59,0,1,1,30.58-30.59A30.59,30.59,0,0,1,190.21,367.08Z" style="opacity:0.2;isolation:isolate"></path><path d="M216.66,317.87a35.75,35.75,0,0,1,.83,4.79,30.59,30.59,0,0,1-41.81,40.75,35.3,35.3,0,0,1-4.75-.93,32.35,32.35,0,0,0,45.73-44.61Z" style="opacity:0.2;isolation:isolate"></path><path d="M193.63,337.81h5.76v2.43h-6.91v2.36h6.91V345h-6.91v3.61H188V345h-6.92V342.6H188v-2.36h-6.92v-2.43h5.73l-9.41-13.47h4.8L190.33,336l8.16-11.67H203Z" style="fill:#407BFF"></path><g style="opacity:0.2"><path d="M193.63,337.81h5.76v2.43h-6.91v2.36h6.91V345h-6.91v3.61H188V345h-6.92V342.6H188v-2.36h-6.92v-2.43h5.73l-9.41-13.47h4.8L190.33,336l8.16-11.67H203Z" style="fill:#fff"></path></g><path d="M190.27,374.56h0c-1.21,0-2.44-.05-3.65-.17a38.49,38.49,0,0,1-4.92-.79.5.5,0,1,1,.22-1,36.76,36.76,0,0,0,4.79.77,35.49,35.49,0,0,0,3.56.17h0a37.4,37.4,0,0,0,6.33-.54.49.49,0,0,1,.58.4.5.5,0,0,1-.41.58A37.29,37.29,0,0,1,190.27,374.56Zm9.34-1.18a.5.5,0,0,1-.12-1,36,36,0,0,0,4.67-1.55.5.5,0,0,1,.65.28.49.49,0,0,1-.27.65,38.54,38.54,0,0,1-4.8,1.59Zm-27.16-3.27a.46.46,0,0,1-.23-.06c-.6-.32-1.19-.65-1.76-1a.49.49,0,0,1-.17-.69.5.5,0,0,1,.68-.17c.57.34,1.14.67,1.72,1a.51.51,0,0,1,.2.68A.49.49,0,0,1,172.45,370.11Zm44.31-6.54a.5.5,0,0,1-.35-.15.5.5,0,0,1,0-.71c.47-.46.92-.94,1.36-1.43a.5.5,0,0,1,.71,0,.49.49,0,0,1,0,.7c-.45.5-.92,1-1.39,1.47A.51.51,0,0,1,216.76,363.57Zm-57-4.55a.49.49,0,0,1-.41-.21,39.56,39.56,0,0,1-2.69-4.29.49.49,0,0,1,.21-.67.49.49,0,0,1,.67.2,37.42,37.42,0,0,0,2.62,4.17.51.51,0,0,1-.11.7A.46.46,0,0,1,159.77,359Zm64-5.13a.59.59,0,0,1-.22-.05.51.51,0,0,1-.23-.67A36.72,36.72,0,0,0,227.11,340c0-.34.06-.68.08-1a.5.5,0,0,1,1,.07q0,.52-.09,1.05a38,38,0,0,1-3.88,13.52A.51.51,0,0,1,223.77,353.89Zm-68-1.8a.49.49,0,0,1-.46-.3,37.43,37.43,0,0,1-3.2-14.75.49.49,0,0,1,.49-.5.48.48,0,0,1,.51.49,36.59,36.59,0,0,0,3.11,14.36.49.49,0,0,1-.25.66A.51.51,0,0,1,155.8,352.09Zm72-15.57a.49.49,0,0,1-.5-.49,36.67,36.67,0,0,0-.39-4.92.5.5,0,0,1,1-.14,38.61,38.61,0,0,1,.4,5,.5.5,0,0,1-.5.51Zm-74-8.88-.12,0a.5.5,0,0,1-.36-.61c.17-.65.35-1.3.55-1.94a.49.49,0,0,1,.63-.33.5.5,0,0,1,.33.62c-.2.63-.38,1.26-.54,1.9A.5.5,0,0,1,153.81,327.64Zm68.53-10.12a.5.5,0,0,1-.43-.24c-.34-.56-.69-1.11-1.06-1.65a.5.5,0,1,1,.82-.57c.38.56.75,1.13,1.1,1.7a.5.5,0,0,1-.17.69A.48.48,0,0,1,222.34,317.52Zm-60.78-4.85a.5.5,0,0,1-.38-.82,37.81,37.81,0,0,1,3.53-3.63.5.5,0,0,1,.71,0,.5.5,0,0,1,0,.7,38.33,38.33,0,0,0-3.44,3.54A.52.52,0,0,1,161.56,312.67Zm53.05-4.25a.5.5,0,0,1-.33-.12,36.75,36.75,0,0,0-12.84-7.14.51.51,0,0,1-.33-.63.5.5,0,0,1,.63-.33,37.69,37.69,0,0,1,13.19,7.34.51.51,0,0,1,.06.71A.52.52,0,0,1,214.61,308.42Zm-47.26-1.25a.49.49,0,0,1-.3-.89,37.84,37.84,0,0,1,13.55-6.64.5.5,0,0,1,.25,1,37,37,0,0,0-13.2,6.46A.47.47,0,0,1,167.35,307.17Zm31.35-6.78h-.12a35.93,35.93,0,0,0-4.86-.79.5.5,0,0,1-.45-.55.51.51,0,0,1,.54-.45,39.76,39.76,0,0,1,5,.81.5.5,0,0,1-.11,1Zm-6.08-.89h0c-.66,0-1.32-.07-2-.08a.5.5,0,0,1-.5-.5.51.51,0,0,1,.5-.5h0c.67,0,1.35,0,2,.08a.5.5,0,0,1,0,1Z" style="fill:#407BFF"></path><circle cx="235.51" cy="136.57" r="32.35" style="fill:#407BFF"></circle><circle cx="235.51" cy="136.57" r="27.48" style="opacity:0.2;isolation:isolate"></circle><path d="M255.3,117.5a27.48,27.48,0,0,0-38.85,38.86A27.48,27.48,0,1,1,255.3,117.5Z" style="opacity:0.2;isolation:isolate"></path><path d="M235.51,104.22a32.35,32.35,0,1,0,32.35,32.35A32.35,32.35,0,0,0,235.51,104.22Zm0,62.94a30.59,30.59,0,1,1,30.58-30.59A30.59,30.59,0,0,1,235.51,167.16Z" style="opacity:0.2;isolation:isolate"></path><path d="M262,118a37.42,37.42,0,0,1,.83,4.79A30.59,30.59,0,0,1,221,163.49a35.47,35.47,0,0,1-4.74-.93A32.36,32.36,0,0,0,262,118Z" style="opacity:0.2;isolation:isolate"></path><path d="M233,145.11h12.53v3.79h-20.7v-3.79h3.65v-6.94h-3.65v-2.85h3.65v-1.6c0-5.76,3.93-9.48,10.8-9.48a12.79,12.79,0,0,1,6.84,1.63l-1.42,3.69a10.19,10.19,0,0,0-5.66-1.36c-4,0-6,1.91-6,5.49v1.63h8.78v2.85H233Z" style="fill:#407BFF"></path><g style="opacity:0.2"><path d="M233,145.11h12.53v3.79h-20.7v-3.79h3.65v-6.94h-3.65v-2.85h3.65v-1.6c0-5.76,3.93-9.48,10.8-9.48a12.79,12.79,0,0,1,6.84,1.63l-1.42,3.69a10.19,10.19,0,0,0-5.66-1.36c-4,0-6,1.91-6,5.49v1.63h8.78v2.85H233Z" style="fill:#fff"></path></g><path d="M235.55,174.64c-1.21,0-2.44-.06-3.65-.17a38.77,38.77,0,0,1-4.92-.79.5.5,0,0,1-.37-.6.5.5,0,0,1,.6-.38,36.49,36.49,0,0,0,4.79.77,36.86,36.86,0,0,0,9.9-.38.51.51,0,0,1,.58.41.5.5,0,0,1-.41.58A38.35,38.35,0,0,1,235.55,174.64Zm9.37-1.19a.48.48,0,0,1-.48-.37.5.5,0,0,1,.35-.61,36.64,36.64,0,0,0,4.68-1.55.5.5,0,0,1,.65.28.51.51,0,0,1-.27.65,38.69,38.69,0,0,1-4.81,1.59Zm-27.16-3.26a.53.53,0,0,1-.24-.06c-.59-.32-1.18-.65-1.76-1a.5.5,0,1,1,.52-.86c.56.34,1.13.67,1.72,1a.51.51,0,0,1,.2.68A.49.49,0,0,1,217.76,170.19Zm44.31-6.54a.51.51,0,0,1-.36-.15.51.51,0,0,1,0-.71c.47-.46.92-.94,1.36-1.43a.51.51,0,0,1,.71,0,.51.51,0,0,1,0,.71c-.46.5-.92,1-1.4,1.47A.49.49,0,0,1,262.07,163.65Zm-57-4.55a.52.52,0,0,1-.4-.21A36.69,36.69,0,0,1,202,154.6a.5.5,0,0,1,.88-.47,36,36,0,0,0,2.62,4.17.51.51,0,0,1-.11.7A.57.57,0,0,1,205.07,159.1Zm64-5.13a.59.59,0,0,1-.23-.05.51.51,0,0,1-.22-.68,36.86,36.86,0,0,0,3.78-13.16c0-.34.06-.68.09-1a.5.5,0,0,1,.53-.46.49.49,0,0,1,.46.53c0,.35-.05.7-.08,1.05a37.8,37.8,0,0,1-3.89,13.51A.48.48,0,0,1,269.08,154Zm-68-1.8a.51.51,0,0,1-.46-.3,37.78,37.78,0,0,1-3.2-14.75.5.5,0,0,1,.49-.5h0a.5.5,0,0,1,.5.49,36.77,36.77,0,0,0,3.12,14.36.5.5,0,0,1-.26.66A.45.45,0,0,1,201.1,152.17Zm72-15.57a.5.5,0,0,1-.5-.5,38.37,38.37,0,0,0-.38-4.91.5.5,0,0,1,1-.14,38.6,38.6,0,0,1,.39,5,.5.5,0,0,1-.49.51Zm-74-8.88-.13,0a.51.51,0,0,1-.36-.61c.17-.65.36-1.3.56-1.94a.48.48,0,0,1,.62-.33.49.49,0,0,1,.33.62c-.19.63-.37,1.26-.54,1.9A.5.5,0,0,1,199.12,127.72Zm68.53-10.12a.49.49,0,0,1-.43-.24c-.34-.56-.7-1.11-1.07-1.66a.5.5,0,0,1,.83-.56c.38.56.74,1.13,1.09,1.7a.5.5,0,0,1-.16.69A.54.54,0,0,1,267.65,117.6Zm-60.78-4.85a.49.49,0,0,1-.38-.82A37.67,37.67,0,0,1,210,108.3a.5.5,0,0,1,.71,0,.49.49,0,0,1,0,.7,37,37,0,0,0-3.43,3.54A.52.52,0,0,1,206.87,112.75Zm53-4.25a.49.49,0,0,1-.32-.12,36.73,36.73,0,0,0-12.85-7.15.5.5,0,0,1-.33-.62.51.51,0,0,1,.63-.33,37.64,37.64,0,0,1,13.2,7.34.5.5,0,0,1-.33.88Zm-47.26-1.25a.47.47,0,0,1-.39-.19.49.49,0,0,1,.09-.7,37.8,37.8,0,0,1,13.56-6.64.5.5,0,0,1,.61.36.51.51,0,0,1-.36.61,37,37,0,0,0-13.2,6.46A.5.5,0,0,1,212.65,107.25ZM244,100.47h-.11a36.33,36.33,0,0,0-4.87-.79.5.5,0,1,1,.1-1,37.87,37.87,0,0,1,5,.81.5.5,0,0,1,.38.6A.51.51,0,0,1,244,100.47Zm-6.08-.89h0c-.66,0-1.32-.07-2-.08a.49.49,0,0,1-.49-.5.5.5,0,0,1,.5-.5h0c.67,0,1.35,0,2,.08a.5.5,0,0,1,.46.53A.49.49,0,0,1,237.92,99.58Z" style="fill:#407BFF"></path></g><g id="freepik--Character--inject-13"><g id="freepik--group--inject-13"><path d="M383.71,408.8h8.61a.61.61,0,0,1,.6.48l1.4,6.32a1,1,0,0,1-.81,1.24.86.86,0,0,1-.23,0c-2.78,0-4.81-.21-8.31-.21-2.16,0-8.66.22-11.64.22s-3.36-2.94-2.14-3.21c5.46-1.19,9.57-2.84,11.32-4.41A1.73,1.73,0,0,1,383.71,408.8Z" style="fill:#263238"></path><path d="M347.17,408.57h8.62a.62.62,0,0,1,.6.49l1.4,6.31a1,1,0,0,1-.81,1.24.85.85,0,0,1-.23,0c-2.78-.05-4.81-.22-8.31-.22-2.16,0-8.66.23-11.64.23s-3.36-2.95-2.15-3.22c5.47-1.19,9.58-2.84,11.33-4.41A1.75,1.75,0,0,1,347.17,408.57Z" style="fill:#263238"></path><path d="M388.27,249.12H350.64c-3.58,19.54-14.78,98.89-6.74,160.5h12.74s-1.18-93.57,10.07-123.81C368,302,381.15,409.55,381.15,409.55h13s-1.93-40.46-3.88-78.68C389,306.81,388.33,254.06,388.27,249.12Z" style="fill:#407BFF"></path><path d="M388.27,249.12H350.64c-3.58,19.54-14.78,98.89-6.74,160.5h12.74s-1.18-93.57,10.07-123.81C368,302,381.15,409.55,381.15,409.55h13s-1.93-40.46-3.88-78.68C389,306.81,388.33,254.06,388.27,249.12Z" style="fill:#fff;opacity:0.4;isolation:isolate"></path><path d="M366.76,196.22a27.92,27.92,0,0,1,14-.49l.85,5.86-18.39.4Z" style="fill:#263238"></path><path d="M332.86,194.59c.48-1.07,0-3.92,0-3.92s-8-4.19-9.28-5.22-2.72,3.6-1.92,4.57,3.2,4.57,7.2,4.57l1.12,3.13Z" style="fill:#e4897b"></path><path d="M354.32,197.72c-3,.72-11.53,12.65-14.5,12.32s-6.52-15.78-6.52-15.78l-4.35,1.3s2.17,19.44,7.71,22.05,18.85-8.43,18.85-8.43Z" style="fill:#263238"></path><path d="M354.32,197.72c-3,.72-11.53,12.65-14.5,12.32s-6.52-15.78-6.52-15.78l-4.35,1.3s2.17,19.44,7.71,22.05,18.85-8.43,18.85-8.43Z" style="fill:#fff;opacity:0.4"></path><path d="M354.54,210a65.8,65.8,0,0,1-7.85,5.29,13.48,13.48,0,0,1,6.79-9.1Z" style="opacity:0.2;isolation:isolate"></path><path d="M366.7,285.81a100.56,100.56,0,0,0-4.2,16.28c-1.05-14.4,3.16-29.67,3.16-29.67Z" style="opacity:0.2;isolation:isolate"></path><polygon points="376.03 249.57 376.03 253.93 388.21 254.08 388.21 249.57 376.03 249.57"></polygon><polygon points="356.86 253.7 374.68 253.92 374.68 249.57 356.86 249.57 356.86 253.7"></polygon><polygon points="355.51 249.57 350.32 249.57 349.84 253.62 355.51 253.68 355.51 249.57"></polygon><rect x="360.58" y="248.78" width="7.01" height="5.05" style="fill:#fff"></rect><path d="M349.73,236c0,.61,0,1.2,0,1.78,0,1.26,0,2.44.07,3.53.06,1.51.12,2.85.18,4,.16,2.73.33,4.3.33,4.3h37.88c.15-1.43.31-2.87.46-4.3s.29-2.67.43-4l.39-3.53c.07-.59.13-1.19.2-1.78.18-1.66.37-3.31.55-4.94,0-.33.07-.66.11-1,.25-2.26.5-4.49.75-6.67.1-.9.21-1.78.31-2.66.39-3.39.76-6.63,1.12-9.68l.66-5.62c.33-2.83.63-5.41.9-7.69H354.32A138,138,0,0,0,349.81,230q0,.51,0,1C349.74,232.75,349.72,234.4,349.73,236Z" style="fill:#263238"></path><path d="M380.29,200.25c-3.38,2.81-11.3,1.36-11.3,1.36s-3-2-1.9-3.5c3-.36,2.53-1.24,3.19-3a8.41,8.41,0,0,0,.45-3.33c0-.62-.08-1.25-.16-1.88l10.17-6.85C379.23,187.83,377.26,196.62,380.29,200.25Z" style="fill:#e4897b"></path><path d="M378.26,187.61c-.66,5.89-5.59,7.31-8,7.53a8.41,8.41,0,0,0,.45-3.33Z" style="opacity:0.2;isolation:isolate"></path><path d="M368.2,165.85s-4.16,8.65-.42,13.62,8.94-11.93,8.94-11.93Z" style="fill:#263238"></path><path d="M379.56,191a8.6,8.6,0,0,1-10.44.29,9.61,9.61,0,0,1-3.93-5.87c-.07-.33-.13-.66-.17-1-.67-6.27,1.56-16.21,8.54-18a9.36,9.36,0,0,1,11.58,10.92C383.87,184,383.44,188,379.56,191Z" style="fill:#e4897b"></path><path d="M374.62,177.82c0,.56-.42,1-.78.92s-.6-.54-.53-1.09.43-1,.78-.91S374.69,177.27,374.62,177.82Z" style="fill:#263238"></path><path d="M368.39,177c0,.55-.43,1-.79.91s-.59-.54-.52-1.08.42-1,.78-.92S368.45,176.5,368.39,177Z" style="fill:#263238"></path><path d="M370.33,177.55a19.51,19.51,0,0,1-3.24,4.37,3.18,3.18,0,0,0,2.58.84Z" style="fill:#de5753"></path><path d="M366.44,174.17a.34.34,0,0,0,.34,0,2.63,2.63,0,0,1,2.35-.14.32.32,0,0,0,.31-.57h0a3.22,3.22,0,0,0-3,.14.32.32,0,0,0-.14.43h0Z" style="fill:#263238"></path><path d="M376.16,175.51a.38.38,0,0,0,.19,0,.33.33,0,0,0,0-.46h0a3.25,3.25,0,0,0-2.75-1.13.33.33,0,0,0-.28.37h0a.32.32,0,0,0,.37.27h0a2.62,2.62,0,0,1,2.17.94A.37.37,0,0,0,376.16,175.51Z" style="fill:#263238"></path><path d="M381.26,168.17l-.81,1.17c2.09,1.12,1.19,3.62.54,4.71-1.4,2.32-.68,6.44,1,8.32,0,0,.25-1.07,1.12-.65s-.39,6-2.64,8.36c0,0,3.11-2,5.68-7.58,2.38-5.21,3.36-9.73,2.62-12Z" style="fill:#263238"></path><path d="M387.38,183.19a6.46,6.46,0,0,1-4.12,2.78c-2.23.44-3.17-1.6-2.41-3.62.69-1.79,2.69-4.24,4.86-3.75A2.9,2.9,0,0,1,387.38,183.19Z" style="fill:#e4897b"></path><path d="M369.67,184.92a21.21,21.21,0,0,1,1.26,2.67,4.64,4.64,0,0,0,.51-.11c2.3-.5,3.21-1.5,3.51-2.45a3,3,0,0,0,.06-1.44,3.1,3.1,0,0,0-.24-.79,11.08,11.08,0,0,1-4.32,1.93C370,184.86,369.67,184.92,369.67,184.92Z" style="fill:#263238"></path><path d="M370.45,184.73l.39.78c2.17-.48,3.64-1.11,4.17-1.92a3.1,3.1,0,0,0-.24-.79A11.08,11.08,0,0,1,370.45,184.73Z" style="fill:#fff"></path><path d="M371.44,187.48c2.3-.5,3.21-1.5,3.51-2.45a7.42,7.42,0,0,0-2.45,1.07A2.84,2.84,0,0,0,371.44,187.48Z" style="fill:#de5753"></path><path d="M389,174.69s3.41-5.32-2.92-11-14.67-3.3-16.44-.92c0,0-5.05,1.11-2.54,6.12l3.33-2.62S375.68,174.86,389,174.69Z" style="fill:#263238"></path><path d="M366.22,196.83s-11.59,19.32-12.78,55H347.7s1.76-43.82,6.62-54.12Z" style="fill:#263238"></path><path d="M366.22,196.83s-11.59,19.32-12.78,55H347.7s1.76-43.82,6.62-54.12Z" style="fill:#fff;opacity:0.4"></path><path d="M380.24,196.83s-3.41,49.24,10.36,60.91l4.26-3.91s-4.35-28.43-1.67-40.1,1.67-16,1.67-16Z" style="fill:#263238"></path><path d="M392.79,235.28c.73,9.79,2.07,18.55,2.07,18.55l-4.26,3.91a19.2,19.2,0,0,1-4.69-6.59c-8.22-17.51-5.67-54.32-5.67-54.32l14.62.88s.77,3.31-.82,11.94c-.23,1.24-.51,2.6-.85,4.08a43,43,0,0,0-.84,8.24c-.11,4.16.1,8.84.44,13.3C392.78,235.27,392.78,235.27,392.79,235.28Z" style="fill:#fff;opacity:0.4"></path><path d="M380.74,195.73,389,203l-7.51,4.49,4.74,1.18L380.74,228S377,202.85,380.74,195.73Z" style="fill:#263238"></path><path d="M366.76,196.22l-10.57,6.69,4.39,4.65-3.75,1.29-.46,17.09S361.53,205.1,366.76,196.22Z" style="fill:#263238"></path><path d="M394,209.65c-.23,1.24-.51,2.6-.85,4.08a43,43,0,0,0-.84,8.24c-3.87-6.18-2.31-14.3-2.31-14.3S391.64,208.42,394,209.65Z" style="opacity:0.2;isolation:isolate"></path><path d="M394.86,253.83l-4.26,3.91a19.2,19.2,0,0,1-4.69-6.59c3.33-4.61,5.8-12.18,6.88-15.87C393.52,245.07,394.86,253.83,394.86,253.83Z" style="opacity:0.2;isolation:isolate"></path><path d="M380.74,195.73,389,203l-7.51,4.49,4.74,1.18L380.74,228S377,202.85,380.74,195.73Z" style="fill:#fff;opacity:0.2"></path><path d="M366.76,196.22l-10.57,6.69,4.39,4.65-3.75,1.29-.46,17.09S361.53,205.1,366.76,196.22Z" style="fill:#fff;opacity:0.2"></path><path d="M394.09,197.72c3.49-.72,13.38,31.12,11,37.85s-16.7,22.75-16.7,22.75L384.26,254s11.94-16,13.52-21.29-7.18-22.05-7.18-22.05a27,27,0,0,1-.71-8C390.27,199,394.09,197.72,394.09,197.72Z" style="fill:#263238"></path><path d="M394.09,197.72c3.49-.72,13.38,31.12,11,37.85s-16.7,22.75-16.7,22.75L384.26,254s11.94-16,13.52-21.29-7.18-22.05-7.18-22.05a27,27,0,0,1-.71-8C390.27,199,394.09,197.72,394.09,197.72Z" style="fill:#fff;opacity:0.4"></path></g></g></svg>