<svg id="visual" viewBox="0 0 960 540" width="960" height="540" xmlns="http://www.w3.org/2000/svg" xmlns:xlink="http://www.w3.org/1999/xlink" version="1.1"><rect x="0" y="0" width="960" height="540" fill="#ffffff"></rect><path d="M0 300L20 294.3C40 288.7 80 277.3 120 299.3C160 321.3 200 376.7 240 400.8C280 425 320 418 360 399.7C400 381.3 440 351.7 480 364.3C520 377 560 432 600 432.7C640 433.3 680 379.7 720 343.7C760 307.7 800 289.3 840 280.5C880 271.7 920 272.3 940 272.7L960 273L960 541L940 541C920 541 880 541 840 541C800 541 760 541 720 541C680 541 640 541 600 541C560 541 520 541 480 541C440 541 400 541 360 541C320 541 280 541 240 541C200 541 160 541 120 541C80 541 40 541 20 541L0 541Z" fill="#155D27" stroke-linecap="round" stroke-linejoin="miter"></path></svg>